<svg xmlns="http://www.w3.org/2000/svg" viewBox="0 0 800 600" width="800" height="600">
    <!-- Define gradients and filters -->
    <defs>
        <linearGradient id="batteryGradient" x1="0%" y1="0%" x2="100%" y2="0%">
            <stop offset="0%" stop-color="#e62e2e" />
            <stop offset="100%" stop-color="#ff5c5c" />
        </linearGradient>
        
        <linearGradient id="energyGradient" x1="0%" y1="0%" x2="0%" y2="100%">
            <stop offset="0%" stop-color="#30e86e" />
            <stop offset="100%" stop-color="#19b050" />
        </linearGradient>
        
        <linearGradient id="solarGradient" x1="0%" y1="0%" x2="100%" y2="100%">
            <stop offset="0%" stop-color="#ffe566" />
            <stop offset="100%" stop-color="#ffc107" />
        </linearGradient>
        
        <linearGradient id="batteryFillGradient" x1="0%" y1="0%" x2="0%" y2="100%">
            <stop offset="0%" stop-color="#30e86e" />
            <stop offset="100%" stop-color="#19b050" />
        </linearGradient>
        
        <filter id="glow" x="-20%" y="-20%" width="140%" height="140%">
            <feGaussianBlur stdDeviation="5" result="blur" />
            <feComposite in="SourceGraphic" in2="blur" operator="over" />
        </filter>
        
        <filter id="shadow" x="-20%" y="-20%" width="140%" height="140%">
            <feDropShadow dx="0" dy="4" stdDeviation="8" flood-color="#000" flood-opacity="0.3" />
        </filter>
        
        <!-- For the energy wave pattern -->
        <pattern id="energyPattern" patternUnits="userSpaceOnUse" width="20" height="20" patternTransform="rotate(45)">
            <path d="M 0,10 L 10,0 L 20,10 L 10,20 Z" fill="none" stroke="#19b050" stroke-width="1" />
        </pattern>
    </defs>
    
    <!-- Background -->
    <rect width="800" height="600" fill="#0a0a0a" rx="15" ry="15" />
    
    <!-- Grid Pattern -->
    <pattern id="grid" patternUnits="userSpaceOnUse" width="30" height="30" patternTransform="rotate(45)">
        <rect width="30" height="30" fill="none" />
        <path d="M 30 0 L 0 0 0 30" stroke="#222" stroke-width="0.5" fill="none" />
    </pattern>
    <rect width="800" height="600" fill="url(#grid)" opacity="0.3" />
    
    <!-- Title -->
    <text x="400" y="50" font-family="Arial, sans-serif" font-size="24" fill="#fff" text-anchor="middle" font-weight="bold">
        EXTENDED BATTERY LIFE
    </text>
    <text x="400" y="80" font-family="Arial, sans-serif" font-size="16" fill="#aaa" text-anchor="middle">
        5+ years of continuous operation
    </text>
    
    <!-- Main Battery Visualization -->
    <g id="main-battery" transform="translate(400, 280)">
        <!-- Battery Body -->
        <rect x="-150" y="-80" width="300" height="160" rx="15" ry="15" fill="#111" stroke="#444" stroke-width="3" filter="url(#shadow)" />
        <rect x="-140" y="-70" width="280" height="140" rx="10" ry="10" fill="#080808" stroke="#333" stroke-width="1" />
        
        <!-- Battery Terminal -->
        <rect x="150" y="-30" width="20" height="60" rx="5" ry="5" fill="#111" stroke="#444" stroke-width="2" />
        
        <!-- Battery Level Indicator Background -->
        <rect x="-120" y="-50" width="240" height="100" rx="5" ry="5" fill="#0f0f0f" stroke="#222" stroke-width="1" />
        
        <!-- Battery Level Indicator Fill with Animated Value -->
        <rect id="battery-level" x="-120" y="-50" width="216" height="100" rx="5" ry="5" fill="url(#batteryFillGradient)">
            <animate attributeName="width" values="216;192;204;216" dur="30s" repeatCount="indefinite" />
            <animate attributeName="opacity" values="1;0.8;0.9;1" dur="10s" repeatCount="indefinite" />
        </rect>
        
        <!-- Battery Percentage Digital Display -->
        <rect x="-50" y="-40" width="100" height="30" rx="5" ry="5" fill="#111" stroke="#333" stroke-width="1" />
        <text id="battery-percentage" x="0" y="-20" font-family="Arial, sans-serif" font-size="18" fill="#fff" text-anchor="middle" dominant-baseline="middle">
            90%
            <animate attributeName="textContent" values="90%;80%;85%;90%" dur="30s" repeatCount="indefinite" />
        </text>
        
        <!-- Battery Life Remaining -->
        <rect x="-50" y="0" width="100" height="30" rx="5" ry="5" fill="#111" stroke="#333" stroke-width="1" />
        <text id="battery-years" x="0" y="20" font-family="Arial, sans-serif" font-size="18" fill="#fff" text-anchor="middle" dominant-baseline="middle">
            4.5 YRS
            <animate attributeName="textContent" values="4.5 YRS;4.0 YRS;4.25 YRS;4.5 YRS" dur="30s" repeatCount="indefinite" />
        </text>
        
        <!-- Battery Cells Indicators -->
        <g id="battery-cells">
            <rect x="-110" y="-40" width="4" height="80" fill="#111" />
            <rect x="-90" y="-40" width="4" height="80" fill="#111" />
            <rect x="-70" y="-40" width="4" height="80" fill="#111" />
            <rect x="70" y="-40" width="4" height="80" fill="#111" />
            <rect x="90" y="-40" width="4" height="80" fill="#111" />
            <rect x="110" y="-40" width="4" height="80" fill="#111" />
        </g>
        
        <!-- Battery Glow Effect -->
        <rect x="-120" y="-50" width="240" height="100" rx="5" ry="5" fill="none" stroke="#30e86e" stroke-width="1" opacity="0.5">
            <animate attributeName="opacity" values="0.5;0.8;0.5" dur="4s" repeatCount="indefinite" />
        </rect>
    </g>
    
    <!-- Power Management Features -->
    <g id="power-features" transform="translate(400, 420)">
        <rect x="-300" y="0" width="600" height="80" rx="10" ry="10" fill="#111" stroke="#222" stroke-width="1" />
        
        <!-- Adaptive Power Management -->
        <g transform="translate(-200, 40)">
            <circle cx="0" cy="0" r="25" fill="#111" stroke="url(#batteryGradient)" stroke-width="2" />
            <path d="M -10,-5 L 0,-10 L 0,-5 L 10,-10 L 10,-5 L 0,0 L 0,5 L -10,10 L -10,5 L 0,0 Z" fill="#fff" />
            <text x="0" y="40" font-family="Arial, sans-serif" font-size="12" fill="#fff" text-anchor="middle">Adaptive Power</text>
            
            <animateTransform 
                attributeName="transform" 
                type="scale" 
                from="1" 
                to="1.1" 
                begin="0s" 
                dur="2s" 
                repeatCount="indefinite" 
                additive="sum" />
            <animateTransform 
                attributeName="transform" 
                type="scale" 
                from="1.1" 
                to="1" 
                begin="2s" 
                dur="2s" 
                repeatCount="indefinite" 
                additive="sum" />
        </g>
        
        <!-- Solar Charging -->
        <g transform="translate(0, 40)">
            <circle cx="0" cy="0" r="25" fill="#111" stroke="url(#solarGradient)" stroke-width="2" />
            <path d="M 0,-15 L 5,-5 L 15,-5 L 5,5 L 10,15 L 0,10 L -10,15 L -5,5 L -15,-5 L -5,-5 Z" fill="url(#solarGradient)" />
            <text x="0" y="40" font-family="Arial, sans-serif" font-size="12" fill="#fff" text-anchor="middle">Solar Charging</text>
            
            <!-- Rays of sunshine animation -->
            <g id="sun-rays">
                <line x1="0" y1="-20" x2="0" y2="-30" stroke="#ffe566" stroke-width="2">
                    <animate attributeName="opacity" values="0.2;1;0.2" dur="3s" repeatCount="indefinite" />
                </line>
                <line x1="14" y1="-14" x2="21" y2="-21" stroke="#ffe566" stroke-width="2">
                    <animate attributeName="opacity" values="0.2;1;0.2" dur="3s" begin="0.5s" repeatCount="indefinite" />
                </line>
                <line x1="20" y1="0" x2="30" y2="0" stroke="#ffe566" stroke-width="2">
                    <animate attributeName="opacity" values="0.2;1;0.2" dur="3s" begin="1s" repeatCount="indefinite" />
                </line>
                <line x1="14" y1="14" x2="21" y2="21" stroke="#ffe566" stroke-width="2">
                    <animate attributeName="opacity" values="0.2;1;0.2" dur="3s" begin="1.5s" repeatCount="indefinite" />
                </line>
                <line x1="-14" y1="-14" x2="-21" y2="-21" stroke="#ffe566" stroke-width="2">
                    <animate attributeName="opacity" values="0.2;1;0.2" dur="3s" begin="2s" repeatCount="indefinite" />
                </line>
                <line x1="-20" y1="0" x2="-30" y2="0" stroke="#ffe566" stroke-width="2">
                    <animate attributeName="opacity" values="0.2;1;0.2" dur="3s" begin="2.5s" repeatCount="indefinite" />
                </line>
                <line x1="-14" y1="14" x2="-21" y2="21" stroke="#ffe566" stroke-width="2">
                    <animate attributeName="opacity" values="0.2;1;0.2" dur="3s" begin="3s" repeatCount="indefinite" />
                </line>
            </g>
        </g>
        
        <!-- Sleep Mode -->
        <g transform="translate(200, 40)">
            <circle cx="0" cy="0" r="25" fill="#111" stroke="#777" stroke-width="2" />
            <path d="M -10,-10 C -10,-15 10,-15 10,-10 L 10,0 C 10,10 -10,10 -10,0 Z" fill="none" stroke="#fff" stroke-width="2" />
            <path d="M -5,5 C -5,8 5,8 5,5" fill="none" stroke="#fff" stroke-width="1.5" />
            <text x="0" y="40" font-family="Arial, sans-serif" font-size="12" fill="#fff" text-anchor="middle">Sleep Mode</text>
            
            <!-- Zzz animation -->
            <text x="15" y="-15" font-family="Arial, sans-serif" font-size="14" fill="#fff" text-anchor="middle">
                z
                <animate attributeName="opacity" values="0;1;0" dur="3s" repeatCount="indefinite" />
            </text>
            <text x="20" y="-20" font-family="Arial, sans-serif" font-size="16" fill="#fff" text-anchor="middle">
                Z
                <animate attributeName="opacity" values="0;0;1;0" dur="3s" repeatCount="indefinite" />
            </text>
            <text x="25" y="-25" font-family="Arial, sans-serif" font-size="18" fill="#fff" text-anchor="middle">
                Z
                <animate attributeName="opacity" values="0;0;0;1;0" dur="3s" repeatCount="indefinite" />
            </text>
        </g>
    </g>
    
    <!-- Battery Comparison Chart -->
    <g id="battery-comparison" transform="translate(400, 160)">
        <rect x="-250" y="-80" width="500" height="100" rx="10" ry="10" fill="#111" stroke="#222" stroke-width="1" />
        <text x="0" y="-60" font-family="Arial, sans-serif" font-size="14" fill="#fff" text-anchor="middle">BATTERY LIFE COMPARISON</text>
        
        <!-- Chart Bars -->
        <g id="chart-bars">
            <!-- Standard Battery -->
            <rect x="-200" y="-30" width="100" height="20" rx="3" ry="3" fill="#555" />
            <rect x="-200" y="-30" width="30" height="20" rx="3" ry="3" fill="#777">
                <animate attributeName="width" values="30;40;30" dur="10s" repeatCount="indefinite" />
            </rect>
            <text x="-150" y="-40" font-family="Arial, sans-serif" font-size="12" fill="#fff" text-anchor="middle">Standard</text>
            <text x="-185" y="-20" font-family="Arial, sans-serif" font-size="10" fill="#fff">1 yr</text>
            
            <!-- Advanced Battery -->
            <rect x="-50" y="-30" width="100" height="20" rx="3" ry="3" fill="#555" />
            <rect x="-50" y="-30" width="60" height="20" rx="3" ry="3" fill="#30e86e">
                <animate attributeName="width" values="60;70;60" dur="10s" repeatCount="indefinite" />
            </rect>
            <text x="0" y="-40" font-family="Arial, sans-serif" font-size="12" fill="#fff" text-anchor="middle">Advanced</text>
            <text x="-35" y="-20" font-family="Arial, sans-serif" font-size="10" fill="#fff">2 yrs</text>
            
            <!-- Our Solution -->
            <rect x="100" y="-30" width="150" height="20" rx="3" ry="3" fill="#555" />
            <rect x="100" y="-30" width="150" height="20" rx="3" ry="3" fill="url(#batteryGradient)">
                <animate attributeName="width" values="150;135;150" dur="15s" repeatCount="indefinite" />
            </rect>
            <text x="175" y="-40" font-family="Arial, sans-serif" font-size="12" fill="#fff" text-anchor="middle">IoT Cargo Tracker</text>
            <text x="115" y="-20" font-family="Arial, sans-serif" font-size="10" fill="#fff">5+ yrs</text>
        </g>
        
        <!-- Timeline -->
        <line x1="-225" y1="10" x2="225" y2="10" stroke="#555" stroke-width="1" />
        <text x="-225" y="25" font-family="Arial, sans-serif" font-size="10" fill="#aaa" text-anchor="middle">0</text>
        <text x="-125" y="25" font-family="Arial, sans-serif" font-size="10" fill="#aaa" text-anchor="middle">1</text>
        <text x="-25" y="25" font-family="Arial, sans-serif" font-size="10" fill="#aaa" text-anchor="middle">2</text>
        <text x="75" y="25" font-family="Arial, sans-serif" font-size="10" fill="#aaa" text-anchor="middle">3</text>
        <text x="175" y="25" font-family="Arial, sans-serif" font-size="10" fill="#aaa" text-anchor="middle">5</text>
        <text x="225" y="25" font-family="Arial, sans-serif" font-size="10" fill="#aaa" text-anchor="middle">Years</text>
    </g>
    
    <!-- Energy Consumption Diagram -->
    <g id="energy-consumption" transform="translate(150, 520)">
        <rect x="-100" y="-40" width="200" height="80" rx="5" ry="5" fill="#111" stroke="#222" stroke-width="1" />
        <text x="0" y="-20" font-family="Arial, sans-serif" font-size="12" fill="#fff" text-anchor="middle">ENERGY CONSUMPTION</text>
        
        <!-- Energy Wave -->
        <path d="M -80,20 Q -60,0 -40,20 Q -20,40 0,20 Q 20,0 40,20 Q 60,40 80,20" fill="none" stroke="#30e86e" stroke-width="2">
            <animate attributeName="d" 
                values="M -80,20 Q -60,0 -40,20 Q -20,40 0,20 Q 20,0 40,20 Q 60,40 80,20;
                      M -80,20 Q -60,40 -40,20 Q -20,0 0,20 Q 20,40 40,20 Q 60,0 80,20;
                      M -80,20 Q -60,0 -40,20 Q -20,40 0,20 Q 20,0 40,20 Q 60,40 80,20" 
                dur="5s" 
                repeatCount="indefinite" />
        </path>
        
        <!-- Power Indicator -->
        <circle cx="-60" cy="30" r="5" fill="#30e86e">
            <animate attributeName="cy" values="30;10;30" dur="5s" repeatCount="indefinite" />
            <animate attributeName="opacity" values="1;0.5;1" dur="5s" repeatCount="indefinite" />
        </circle>
    </g>
    
    <!-- Charging Indicator -->
    <g id="charging-indicator" transform="translate(650, 520)">
        <rect x="-100" y="-40" width="200" height="80" rx="5" ry="5" fill="#111" stroke="#222" stroke-width="1" />
        <text x="0" y="-20" font-family="Arial, sans-serif" font-size="12" fill="#fff" text-anchor="middle">CHARGING STATUS</text>
        
        <!-- Plug Connection -->
        <path d="M -30,20 L -10,20 L -10,0 L 10,0 L 10,20 L 30,20" fill="none" stroke="#fff" stroke-width="2" />
        
        <!-- Lightning Bolt -->
        <path d="M 0,-10 L -15,15 L 0,5 L 0,25 L 15,0 L 0,10 Z" fill="#ffe566">
            <animate attributeName="opacity" values="0.5;1;0.5" dur="1.5s" repeatCount="indefinite" />
        </path>
        
        <!-- Status Text -->
        <text x="0" y="45" font-family="Arial, sans-serif" font-size="12" fill="#30e86e" text-anchor="middle">
            OPTIMIZED
            <animate attributeName="textContent" values="OPTIMIZED;CHARGING;OPTIMIZED" dur="10s" repeatCount="indefinite" />
            <animate attributeName="fill" values="#30e86e;#ffe566;#30e86e" dur="10s" repeatCount="indefinite" />
        </text>
    </g>
</svg> 