<svg xmlns="http://www.w3.org/2000/svg" viewBox="0 0 500 300" width="100%" height="100%">
    <defs>
        <!-- Gradients -->
        <linearGradient id="routeGradient" x1="0%" y1="0%" x2="100%" y2="0%">
            <stop offset="0%" stop-color="#e62e2e" />
            <stop offset="100%" stop-color="#ff5c5c" />
        </linearGradient>
        
        <!-- Filters -->
        <filter id="glow" x="-20%" y="-20%" width="140%" height="140%">
            <feGaussianBlur stdDeviation="4" result="blur" />
            <feComposite in="SourceGraphic" in2="blur" operator="over" />
        </filter>
        
        <!-- Marker for arrows -->
        <marker id="arrow" viewBox="0 0 10 10" refX="9" refY="5"
            markerWidth="6" markerHeight="6" orient="auto">
            <path d="M 0 0 L 10 5 L 0 10 z" fill="url(#routeGradient)" />
        </marker>
        
        <!-- Animation for the tracking dot -->
        <circle id="trackingDot" cx="0" cy="0" r="5" fill="#e62e2e">
            <animate attributeName="r" values="5;8;5" dur="2s" repeatCount="indefinite" />
            <animate attributeName="opacity" values="1;0.6;1" dur="2s" repeatCount="indefinite" />
        </circle>
        
        <!-- Shipping container -->
        <g id="container">
            <rect width="30" height="15" rx="1" fill="#333" />
            <rect width="28" height="13" x="1" y="1" rx="1" fill="#444" />
            <line x1="4" y1="1" x2="4" y2="14" stroke="#555" stroke-width="0.5" />
            <line x1="8" y1="1" x2="8" y2="14" stroke="#555" stroke-width="0.5" />
            <rect width="6" height="3" x="12" y="6" fill="#e62e2e" />
        </g>
        
        <!-- Pin marker icon -->
        <g id="locationPin">
            <path d="M 0,0 C -5,-10 -5,-20 0,-20 C 5,-20 5,-10 0,0 Z" fill="#e62e2e" />
            <circle cx="0" cy="-15" r="3" fill="white" />
        </g>

        <!-- Animation path -->
        <path id="motionPath" d="M50,150 C100,50 150,250 200,150 S300,50 350,150 S450,250 500,150" 
            fill="none" stroke="none" />
    </defs>
    
    <!-- Background Map Elements -->
    <rect width="100%" height="100%" fill="#111111" />
    
    <!-- Grid pattern -->
    <g id="grid" opacity="0.1">
        <path d="M0,0 L500,0 M0,30 L500,30 M0,60 L500,60 M0,90 L500,90 M0,120 L500,120 M0,150 L500,150 M0,180 L500,180 M0,210 L500,210 M0,240 L500,240 M0,270 L500,270 M0,300 L500,300" stroke="#aaa" stroke-width="0.5" />
        <path d="M0,0 L0,300 M50,0 L50,300 M100,0 L100,300 M150,0 L150,300 M200,0 L200,300 M250,0 L250,300 M300,0 L300,300 M350,0 L350,300 M400,0 L400,300 M450,0 L450,300 M500,0 L500,300" stroke="#aaa" stroke-width="0.5" />
    </g>
    
    <!-- Origin and Destination -->
    <g transform="translate(50,150)">
        <use href="#locationPin" transform="scale(0.8)" />
        <text x="0" y="15" text-anchor="middle" fill="white" font-family="Poppins, sans-serif" font-size="10">Origin</text>
    </g>
    <g transform="translate(450,150)">
        <use href="#locationPin" transform="scale(0.8)" />
        <text x="0" y="15" text-anchor="middle" fill="white" font-family="Poppins, sans-serif" font-size="10">Destination</text>
    </g>
    
    <!-- Route Path with Dash Animation -->
    <path d="M50,150 C100,50 150,250 200,150 S300,50 350,150 S450,250 450,150" 
        fill="none" 
        stroke="url(#routeGradient)" 
        stroke-width="3"
        stroke-linecap="round"
        stroke-linejoin="round"
        stroke-dasharray="5,5"
        marker-end="url(#arrow)"
        opacity="0.7"
        filter="url(#glow)">
        <animate attributeName="stroke-dashoffset" 
                from="100" 
                to="0" 
                dur="10s" 
                repeatCount="indefinite" />
    </path>
    
    <!-- Moving Container Along Path -->
    <use href="#container">
        <animateMotion
            dur="10s"
            repeatCount="indefinite"
            rotate="auto"
            keyPoints="0;1"
            keyTimes="0;1"
            calcMode="linear">
            <mpath href="#motionPath" />
        </animateMotion>
    </use>
    
    <!-- Tracking Data Points -->
    <g class="data-points">
        <g transform="translate(100,90)">
            <circle cx="0" cy="0" r="3" fill="#e62e2e">
                <animate attributeName="r" values="3;5;3" dur="2s" repeatCount="indefinite" begin="0s" />
                <animate attributeName="opacity" values="1;0.5;1" dur="2s" repeatCount="indefinite" begin="0s" />
            </circle>
            <text x="0" y="-10" text-anchor="middle" fill="white" font-family="Poppins, sans-serif" font-size="8">Checkpoint 1</text>
        </g>
        <g transform="translate(200,150)">
            <circle cx="0" cy="0" r="3" fill="#e62e2e">
                <animate attributeName="r" values="3;5;3" dur="2s" repeatCount="indefinite" begin="0.5s" />
                <animate attributeName="opacity" values="1;0.5;1" dur="2s" repeatCount="indefinite" begin="0.5s" />
            </circle>
            <text x="0" y="-10" text-anchor="middle" fill="white" font-family="Poppins, sans-serif" font-size="8">Checkpoint 2</text>
        </g>
        <g transform="translate(350,150)">
            <circle cx="0" cy="0" r="3" fill="#e62e2e">
                <animate attributeName="r" values="3;5;3" dur="2s" repeatCount="indefinite" begin="1s" />
                <animate attributeName="opacity" values="1;0.5;1" dur="2s" repeatCount="indefinite" begin="1s" />
            </circle>
            <text x="0" y="-10" text-anchor="middle" fill="white" font-family="Poppins, sans-serif" font-size="8">Checkpoint 3</text>
        </g>
    </g>
    
    <!-- Live Connection Lines -->
    <g class="connection-lines">
        <path d="M100,90 L60,40" stroke="#e62e2e" stroke-width="1" opacity="0.5" stroke-dasharray="3,3">
            <animate attributeName="opacity" values="0.5;0.8;0.5" dur="3s" repeatCount="indefinite" />
        </path>
        <path d="M200,150 L240,40" stroke="#e62e2e" stroke-width="1" opacity="0.5" stroke-dasharray="3,3">
            <animate attributeName="opacity" values="0.5;0.8;0.5" dur="3s" repeatCount="indefinite" begin="0.5s" />
        </path>
        <path d="M350,150 L400,40" stroke="#e62e2e" stroke-width="1" opacity="0.5" stroke-dasharray="3,3">
            <animate attributeName="opacity" values="0.5;0.8;0.5" dur="3s" repeatCount="indefinite" begin="1s" />
        </path>
    </g>
    
    <!-- Pulsing Radar/Signal -->
    <g transform="translate(250, 40)">
        <circle cx="0" cy="0" r="10" fill="none" stroke="#e62e2e" stroke-width="2">
            <animate attributeName="r" values="10;40;10" dur="3s" repeatCount="indefinite" />
            <animate attributeName="opacity" values="1;0;1" dur="3s" repeatCount="indefinite" />
        </circle>
        <circle cx="0" cy="0" r="5" fill="#e62e2e">
            <animate attributeName="r" values="5;7;5" dur="2s" repeatCount="indefinite" />
        </circle>
    </g>
    
    <!-- Status Indicator -->
    <g transform="translate(400, 30)">
        <rect width="80" height="20" rx="3" fill="#222" stroke="#444" />
        <text x="40" y="15" text-anchor="middle" fill="#e62e2e" font-family="Poppins, sans-serif" font-size="10">ON TRACK</text>
        <circle cx="10" cy="10" r="3" fill="#0f0">
            <animate attributeName="opacity" values="1;0.3;1" dur="1s" repeatCount="indefinite" />
        </circle>
    </g>
</svg> 