<svg xmlns="http://www.w3.org/2000/svg" viewBox="0 0 400 300" width="100%" height="100%">
    <defs>
        <!-- Gradients -->
        <linearGradient id="tempGradient" x1="0%" y1="0%" x2="0%" y2="100%">
            <stop offset="0%" stop-color="#e62e2e" />
            <stop offset="100%" stop-color="#ff9e80" />
        </linearGradient>
        
        <linearGradient id="humidityGradient" x1="0%" y1="0%" x2="0%" y2="100%">
            <stop offset="0%" stop-color="#2196F3" />
            <stop offset="100%" stop-color="#0D47A1" />
        </linearGradient>
        
        <linearGradient id="shockGradient" x1="0%" y1="0%" x2="0%" y2="100%">
            <stop offset="0%" stop-color="#FFD740" />
            <stop offset="100%" stop-color="#FF6D00" />
        </linearGradient>
        
        <!-- Filters -->
        <filter id="glow" x="-20%" y="-20%" width="140%" height="140%">
            <feGaussianBlur stdDeviation="2" result="blur" />
            <feComposite in="SourceGraphic" in2="blur" operator="over" />
        </filter>
        
        <filter id="shadow" x="-10%" y="-10%" width="120%" height="130%">
            <feDropShadow dx="0" dy="3" stdDeviation="3" flood-color="#000" flood-opacity="0.3" />
        </filter>
    </defs>
    
    <!-- Background with grid pattern -->
    <rect width="100%" height="100%" fill="#111111" rx="10" ry="10" />
    <g stroke="#333" stroke-width="0.5" opacity="0.2">
        <path d="M0,0 H400 M0,30 H400 M0,60 H400 M0,90 H400 M0,120 H400 M0,150 H400 M0,180 H400 M0,210 H400 M0,240 H400 M0,270 H400 M0,300 H400" />
        <path d="M0,0 V300 M40,0 V300 M80,0 V300 M120,0 V300 M160,0 V300 M200,0 V300 M240,0 V300 M280,0 V300 M320,0 V300 M360,0 V300 M400,0 V300" />
    </g>
    
    <!-- Header -->
    <g font-family="Poppins, sans-serif" text-anchor="middle">
        <text x="200" y="30" font-size="18" fill="white" font-weight="600">ENVIRONMENTAL MONITORING</text>
        <text x="200" y="50" font-size="12" fill="#aaa">Real-time cargo condition tracking</text>
    </g>
    
    <!-- Temperature Gauge -->
    <g transform="translate(80, 150)">
        <!-- Title -->
        <text x="0" y="-80" font-family="Poppins, sans-serif" text-anchor="middle" font-size="14" fill="white">Temperature</text>
        
        <!-- Thermometer Outline -->
        <rect x="-8" y="-60" width="16" height="100" rx="8" ry="8" fill="#222" stroke="#444" stroke-width="1" />
        <circle cx="0" cy="55" r="20" fill="#222" stroke="#444" stroke-width="1" />
        
        <!-- Thermometer Fill -->
        <rect id="tempFill" x="-5" y="-10" width="10" height="65" rx="5" ry="5" fill="url(#tempGradient)" filter="url(#glow)">
            <animate attributeName="y" values="-10;-40;-10;-20;-10" dur="10s" repeatCount="indefinite" />
            <animate attributeName="height" values="65;95;65;75;65" dur="10s" repeatCount="indefinite" />
        </rect>
        <circle cx="0" cy="55" r="17" fill="url(#tempGradient)" filter="url(#glow)" />
        
        <!-- Temperature Reading -->
        <g id="tempReading">
            <rect x="-30" y="85" width="60" height="25" rx="5" ry="5" fill="#222" stroke="#444" stroke-width="1" />
            <text x="0" y="103" font-family="Poppins, sans-serif" text-anchor="middle" font-size="14" fill="white" id="tempValue">
                2.4°C
                <animate attributeName="textContent" values="2.4°C;-4.1°C;2.4°C;-0.5°C;2.4°C" dur="10s" repeatCount="indefinite" />
            </text>
        </g>
        
        <!-- Temperature Scale Markers -->
        <line x1="15" y1="-50" x2="25" y2="-50" stroke="white" stroke-width="1" />
        <text x="35" y="-47" font-family="Poppins, sans-serif" text-anchor="start" font-size="10" fill="white">-10°C</text>
        
        <line x1="15" y1="-20" x2="25" y2="-20" stroke="white" stroke-width="1" />
        <text x="35" y="-17" font-family="Poppins, sans-serif" text-anchor="start" font-size="10" fill="white">0°C</text>
        
        <line x1="15" y1="10" x2="25" y2="10" stroke="white" stroke-width="1" />
        <text x="35" y="13" font-family="Poppins, sans-serif" text-anchor="start" font-size="10" fill="white">10°C</text>
        
        <line x1="15" y1="40" x2="25" y2="40" stroke="white" stroke-width="1" />
        <text x="35" y="43" font-family="Poppins, sans-serif" text-anchor="start" font-size="10" fill="white">20°C</text>
    </g>
    
    <!-- Humidity Gauge -->
    <g transform="translate(200, 150)">
        <!-- Title -->
        <text x="0" y="-80" font-family="Poppins, sans-serif" text-anchor="middle" font-size="14" fill="white">Humidity</text>
        
        <!-- Humidity Drop Shape -->
        <path d="M0,-60 C20,-30 40,0 0,40 C-40,0 -20,-30 0,-60" fill="#222" stroke="#444" stroke-width="1" />
        
        <!-- Humidity Fill with Animation -->
        <clipPath id="dropClip">
            <path d="M0,-60 C20,-30 40,0 0,40 C-40,0 -20,-30 0,-60" />
        </clipPath>
        
        <rect x="-40" y="40" width="80" height="0" fill="url(#humidityGradient)" filter="url(#glow)" clip-path="url(#dropClip)">
            <animate attributeName="y" values="40;-10;40;10;40" dur="10s" repeatCount="indefinite" />
            <animate attributeName="height" values="0;50;0;30;0" dur="10s" repeatCount="indefinite" />
        </rect>
        
        <!-- Humidity Ripple Effect -->
        <circle cx="0" cy="0" r="0" fill="none" stroke="url(#humidityGradient)" stroke-width="1" opacity="0.7" clip-path="url(#dropClip)">
            <animate attributeName="r" values="0;30;0" dur="3s" repeatCount="indefinite" />
            <animate attributeName="opacity" values="0.7;0;0.7" dur="3s" repeatCount="indefinite" />
        </circle>
        
        <!-- Humidity Reading -->
        <g id="humidityReading">
            <rect x="-30" y="85" width="60" height="25" rx="5" ry="5" fill="#222" stroke="#444" stroke-width="1" />
            <text x="0" y="103" font-family="Poppins, sans-serif" text-anchor="middle" font-size="14" fill="white" id="humidityValue">
                67%
                <animate attributeName="textContent" values="67%;84%;67%;72%;67%" dur="10s" repeatCount="indefinite" />
            </text>
        </g>
        
        <!-- Humidity Scale Markers -->
        <line x1="25" y1="-40" x2="35" y2="-40" stroke="white" stroke-width="1" />
        <text x="45" y="-37" font-family="Poppins, sans-serif" text-anchor="start" font-size="10" fill="white">20%</text>
        
        <line x1="25" y1="-10" x2="35" y2="-10" stroke="white" stroke-width="1" />
        <text x="45" y="-7" font-family="Poppins, sans-serif" text-anchor="start" font-size="10" fill="white">50%</text>
        
        <line x1="25" y1="20" x2="35" y2="20" stroke="white" stroke-width="1" />
        <text x="45" y="23" font-family="Poppins, sans-serif" text-anchor="start" font-size="10" fill="white">80%</text>
    </g>
    
    <!-- Shock Level Gauge -->
    <g transform="translate(320, 150)">
        <!-- Title -->
        <text x="0" y="-80" font-family="Poppins, sans-serif" text-anchor="middle" font-size="14" fill="white">Shock Level</text>
        
        <!-- Shock Gauge Background -->
        <rect x="-40" y="-60" width="80" height="100" rx="5" ry="5" fill="#222" stroke="#444" stroke-width="1" />
        
        <!-- Shock Level Bars -->
        <g>
            <!-- Level Markers -->
            <rect x="-30" y="30" width="60" height="5" fill="#444" />
            <rect x="-30" y="15" width="60" height="5" fill="#444" />
            <rect x="-30" y="0" width="60" height="5" fill="#444" />
            <rect x="-30" y="-15" width="60" height="5" fill="#444" />
            <rect x="-30" y="-30" width="60" height="5" fill="#444" />
            <rect x="-30" y="-45" width="60" height="5" fill="#444" />
            
            <!-- Active Levels with Animation -->
            <rect x="-30" y="30" width="60" height="5" fill="url(#shockGradient)" opacity="0.7">
                <animate attributeName="opacity" values="0.7;1;0.7;1;0.7" dur="5s" repeatCount="indefinite" />
            </rect>
            <rect x="-30" y="15" width="60" height="5" fill="url(#shockGradient)" opacity="0.7">
                <animate attributeName="opacity" values="0.7;1;0.7;1;0.7" dur="5s" repeatCount="indefinite" />
            </rect>
            <rect x="-30" y="0" width="60" height="5" fill="url(#shockGradient)" opacity="0">
                <animate attributeName="opacity" values="0;1;0;0;0" dur="5s" repeatCount="indefinite" />
            </rect>
            <rect x="-30" y="-15" width="60" height="5" fill="url(#shockGradient)" opacity="0">
                <animate attributeName="opacity" values="0;0.7;0;0;0" dur="5s" repeatCount="indefinite" />
            </rect>
            <rect x="-30" y="-30" width="60" height="5" fill="url(#shockGradient)" opacity="0">
                <animate attributeName="opacity" values="0;0.3;0;0;0" dur="5s" repeatCount="indefinite" />
            </rect>
            <rect x="-30" y="-45" width="60" height="5" fill="url(#shockGradient)" opacity="0" />
        </g>
        
        <!-- Shock Level Reading -->
        <g id="shockReading">
            <rect x="-30" y="85" width="60" height="25" rx="5" ry="5" fill="#222" stroke="#444" stroke-width="1" />
            <text x="0" y="103" font-family="Poppins, sans-serif" text-anchor="middle" font-size="14" fill="white" id="shockValue">
                2.1G
                <animate attributeName="textContent" values="2.1G;4.7G;2.1G;2.5G;2.1G" dur="5s" repeatCount="indefinite" />
            </text>
        </g>
        
        <!-- Shock Scale Markers -->
        <text x="-40" y="-42" font-family="Poppins, sans-serif" text-anchor="end" font-size="10" fill="white">5G</text>
        <text x="-40" y="-12" font-family="Poppins, sans-serif" text-anchor="end" font-size="10" fill="white">3G</text>
        <text x="-40" y="18" font-family="Poppins, sans-serif" text-anchor="end" font-size="10" fill="white">1G</text>
    </g>
    
    <!-- Live Status Indicators -->
    <g transform="translate(200, 240)">
        <rect x="-125" y="0" width="250" height="30" rx="5" ry="5" fill="#111" stroke="#333" stroke-width="1" />
        
        <!-- Status Dot -->
        <circle cx="-100" cy="15" r="6" fill="#4CAF50">
            <animate attributeName="fill" values="#4CAF50;#4CAF50;#e62e2e;#4CAF50" dur="10s" repeatCount="indefinite" />
            <animate attributeName="opacity" values="1;1;1;1" dur="10s" repeatCount="indefinite" />
        </circle>
        
        <!-- Status Text -->
        <text x="-80" y="19" font-family="Poppins, sans-serif" text-anchor="start" font-size="12" fill="white">
            Status:
            <tspan id="statusText" x="-30" fill="#4CAF50">
                Normal
                <animate attributeName="textContent" values="Normal;Normal;Alert;Normal" dur="10s" repeatCount="indefinite" />
                <animate attributeName="fill" values="#4CAF50;#4CAF50;#e62e2e;#4CAF50" dur="10s" repeatCount="indefinite" />
            </tspan>
        </text>
        
        <!-- Last Updated -->
        <text x="70" y="19" font-family="Poppins, sans-serif" text-anchor="start" font-size="12" fill="#aaa">Updated: <tspan id="updateTime">Just now</tspan></text>
    </g>
    
    <!-- Animated Connection Signal -->
    <g transform="translate(375, 30)">
        <rect x="-15" y="-15" width="30" height="30" rx="5" ry="5" fill="#222" stroke="#444" stroke-width="1" />
        
        <!-- Signal Bars -->
        <rect x="-10" y="5" width="4" height="5" fill="#4CAF50" />
        <rect x="-3" y="0" width="4" height="10" fill="#4CAF50" />
        <rect x="4" y="-5" width="4" height="15" fill="#4CAF50">
            <animate attributeName="fill" values="#4CAF50;#666;#4CAF50" dur="5s" repeatCount="indefinite" />
        </rect>
    </g>
    
    <!-- Data Transmission Animation -->
    <g>
        <path d="M80,240 L80,270 L200,270 L200,240" fill="none" stroke="#e62e2e" stroke-width="1" stroke-dasharray="4,4">
            <animate attributeName="stroke-dashoffset" values="0;100" dur="5s" repeatCount="indefinite" />
        </path>
        
        <path d="M320,240 L320,270 L200,270" fill="none" stroke="#2196F3" stroke-width="1" stroke-dasharray="4,4">
            <animate attributeName="stroke-dashoffset" values="0;100" dur="5s" repeatCount="indefinite" />
        </path>
    </g>
</svg> 