<svg xmlns="http://www.w3.org/2000/svg" viewBox="0 0 300 300" width="100%" height="100%">
  <!-- Definitions for gradients and filters -->
  <defs>
    <linearGradient id="gaugeGradient" x1="0%" y1="0%" x2="0%" y2="100%">
      <stop offset="0%" stop-color="#3ce762" />
      <stop offset="50%" stop-color="#ffaa00" />
      <stop offset="100%" stop-color="#e62e2e" />
    </linearGradient>
    
    <filter id="glow" x="-20%" y="-20%" width="140%" height="140%">
      <feGaussianBlur stdDeviation="5" result="blur" />
      <feComposite in="SourceGraphic" in2="blur" operator="over" />
    </filter>
    
    <linearGradient id="needleGradient" x1="0%" y1="0%" x2="100%" y2="0%">
      <stop offset="0%" stop-color="#111111" />
      <stop offset="70%" stop-color="#333333" />
      <stop offset="100%" stop-color="#111111" />
    </linearGradient>
    
    <linearGradient id="centerGradient" x1="0%" y1="0%" x2="100%" y2="100%">
      <stop offset="0%" stop-color="#444444" />
      <stop offset="100%" stop-color="#111111" />
    </linearGradient>
  </defs>
  
  <!-- Outer gauge background -->
  <circle cx="150" cy="150" r="130" fill="#111111" stroke="#333333" stroke-width="4" />
  
  <!-- Gauge arc background -->
  <path d="M40,150 A110,110 0 0,1 260,150" stroke="#222222" stroke-width="15" fill="none" stroke-linecap="round" />
  
  <!-- Colored gauge meter -->
  <path d="M40,150 A110,110 0 0,1 260,150" stroke="url(#gaugeGradient)" stroke-width="12" fill="none" stroke-linecap="round" class="gauge-meter" />
  
  <!-- Tick marks -->
  <g class="tick-marks">
    <!-- Major ticks -->
    <line x1="40" y1="150" x2="50" y2="150" stroke="#ffffff" stroke-width="3" transform="rotate(-60, 150, 150)" />
    <line x1="40" y1="150" x2="50" y2="150" stroke="#ffffff" stroke-width="3" transform="rotate(-30, 150, 150)" />
    <line x1="40" y1="150" x2="50" y2="150" stroke="#ffffff" stroke-width="3" transform="rotate(0, 150, 150)" />
    <line x1="40" y1="150" x2="50" y2="150" stroke="#ffffff" stroke-width="3" transform="rotate(30, 150, 150)" />
    <line x1="40" y1="150" x2="50" y2="150" stroke="#ffffff" stroke-width="3" transform="rotate(60, 150, 150)" />
    
    <!-- Minor ticks -->
    <line x1="40" y1="150" x2="45" y2="150" stroke="#aaaaaa" stroke-width="1.5" transform="rotate(-50, 150, 150)" />
    <line x1="40" y1="150" x2="45" y2="150" stroke="#aaaaaa" stroke-width="1.5" transform="rotate(-40, 150, 150)" />
    <line x1="40" y1="150" x2="45" y2="150" stroke="#aaaaaa" stroke-width="1.5" transform="rotate(-20, 150, 150)" />
    <line x1="40" y1="150" x2="45" y2="150" stroke="#aaaaaa" stroke-width="1.5" transform="rotate(-10, 150, 150)" />
    <line x1="40" y1="150" x2="45" y2="150" stroke="#aaaaaa" stroke-width="1.5" transform="rotate(10, 150, 150)" />
    <line x1="40" y1="150" x2="45" y2="150" stroke="#aaaaaa" stroke-width="1.5" transform="rotate(20, 150, 150)" />
    <line x1="40" y1="150" x2="45" y2="150" stroke="#aaaaaa" stroke-width="1.5" transform="rotate(40, 150, 150)" />
    <line x1="40" y1="150" x2="45" y2="150" stroke="#aaaaaa" stroke-width="1.5" transform="rotate(50, 150, 150)" />
  </g>
  
  <!-- Gauge readings -->
  <text x="72" y="170" fill="#ffffff" font-family="Arial" font-size="12" text-anchor="middle" transform="rotate(-45, 72, 170)">E</text>
  <text x="150" y="80" fill="#ffffff" font-family="Arial" font-size="12" text-anchor="middle">1/2</text>
  <text x="228" y="170" fill="#ffffff" font-family="Arial" font-size="12" text-anchor="middle" transform="rotate(45, 228, 170)">F</text>
  
  <!-- Gauge needle -->
  <g class="needle" transform="rotate(-60, 150, 150)">
    <line x1="150" y1="150" x2="70" y2="150" stroke="url(#needleGradient)" stroke-width="4" stroke-linecap="round" />
    <circle cx="150" cy="150" r="8" fill="url(#centerGradient)" stroke="#555555" stroke-width="1" />
  </g>
  
  <!-- Digital reading -->
  <g>
    <rect x="120" y="190" width="60" height="25" rx="5" ry="5" fill="#000000" stroke="#444444" stroke-width="1" />
    <text x="150" y="208" fill="#e62e2e" font-family="'Courier New', monospace" font-size="16" font-weight="bold" text-anchor="middle" class="fuel-level">75%</text>
  </g>
  
  <!-- Glow effects on important elements -->
  <circle cx="150" cy="150" r="8" fill="none" stroke="#e62e2e" stroke-width="2" filter="url(#glow)" class="center-glow" />
  
  <!-- Animation -->
  <style>
    .needle {
      animation: needleMove 8s infinite ease-in-out;
      transform-origin: 150px 150px;
    }
    
    @keyframes needleMove {
      0% { transform: rotate(-60deg); }
      20% { transform: rotate(30deg); }
      40% { transform: rotate(-10deg); }
      60% { transform: rotate(60deg); }
      80% { transform: rotate(10deg); }
      100% { transform: rotate(-60deg); }
    }
    
    .center-glow {
      animation: glowPulse 2s infinite alternate;
    }
    
    @keyframes glowPulse {
      0% { opacity: 0.3; }
      100% { opacity: 1; }
    }
    
    .gauge-meter {
      stroke-dasharray: 314;
      stroke-dashoffset: 314;
      animation: gaugeLoad 3s forwards ease-out, gaugeFlash 5s 3s infinite;
    }
    
    @keyframes gaugeLoad {
      to { stroke-dashoffset: 0; }
    }
    
    @keyframes gaugeFlash {
      0% { filter: none; }
      50% { filter: brightness(1.5); }
      100% { filter: none; }
    }
    
    .fuel-level {
      animation: updateReading 8s infinite ease-in-out;
    }
    
    @keyframes updateReading {
      0% { content: "25%"; }
      20% { content: "65%"; }
      40% { content: "45%"; }
      60% { content: "85%"; }
      80% { content: "55%"; }
      100% { content: "25%"; }
    }
  </style>
</svg> 