<svg xmlns="http://www.w3.org/2000/svg" viewBox="0 0 500 300" width="100%" height="100%">
    <defs>
        <!-- Gradients -->
        <linearGradient id="chartGradient" x1="0%" y1="0%" x2="0%" y2="100%">
            <stop offset="0%" stop-color="#e62e2e" stop-opacity="0.8" />
            <stop offset="100%" stop-color="#e62e2e" stop-opacity="0.1" />
        </linearGradient>
        
        <linearGradient id="chartLine" x1="0%" y1="0%" x2="100%" y2="0%">
            <stop offset="0%" stop-color="#e62e2e" />
            <stop offset="100%" stop-color="#ff5c5c" />
        </linearGradient>
        
        <linearGradient id="predictionGradient" x1="0%" y1="0%" x2="0%" y2="100%">
            <stop offset="0%" stop-color="#4CAF50" stop-opacity="0.8" />
            <stop offset="100%" stop-color="#4CAF50" stop-opacity="0.1" />
        </linearGradient>
        
        <linearGradient id="brainGradient" x1="0%" y1="0%" x2="100%" y2="100%">
            <stop offset="0%" stop-color="#e62e2e" />
            <stop offset="100%" stop-color="#673AB7" />
        </linearGradient>
        
        <!-- Filters -->
        <filter id="glow" x="-20%" y="-20%" width="140%" height="140%">
            <feGaussianBlur stdDeviation="2" result="blur" />
            <feComposite in="SourceGraphic" in2="blur" operator="over" />
        </filter>
        
        <filter id="shadow" x="-10%" y="-10%" width="120%" height="120%">
            <feDropShadow dx="0" dy="3" stdDeviation="3" flood-color="#000" flood-opacity="0.3" />
        </filter>
        
        <!-- Patterns -->
        <pattern id="gridPattern" width="20" height="20" patternUnits="userSpaceOnUse">
            <path d="M 20 0 L 0 0 0 20" fill="none" stroke="#333" stroke-width="0.5" opacity="0.5" />
        </pattern>
    </defs>
    
    <!-- Background -->
    <rect width="100%" height="100%" fill="#0a0a0a" rx="10" ry="10" />
    <rect width="100%" height="100%" fill="url(#gridPattern)" />
    
    <!-- Header -->
    <g font-family="Poppins, sans-serif" text-anchor="middle">
        <text x="250" y="30" font-size="18" fill="white" font-weight="600">PREDICTIVE ANALYTICS</text>
        <text x="250" y="50" font-size="12" fill="#aaa">AI-powered supply chain optimization</text>
    </g>
    
    <!-- Main Chart Area -->
    <g transform="translate(30, 80)">
        <!-- Chart Frame -->
        <rect x="0" y="0" width="300" height="180" fill="#111" stroke="#333" stroke-width="1" rx="5" ry="5" />
        
        <!-- Axis Labels -->
        <line x1="0" y1="180" x2="300" y2="180" stroke="#444" stroke-width="1" />
        <line x1="0" y1="0" x2="0" y2="180" stroke="#444" stroke-width="1" />
        
        <!-- X-Axis Labels -->
        <g font-family="Poppins, sans-serif" fill="#aaa" font-size="8">
            <text x="0" y="195" text-anchor="middle">0</text>
            <text x="60" y="195" text-anchor="middle">6h</text>
            <text x="120" y="195" text-anchor="middle">12h</text>
            <text x="180" y="195" text-anchor="middle">18h</text>
            <text x="240" y="195" text-anchor="middle">24h</text>
            <text x="300" y="195" text-anchor="middle">30h</text>
        </g>
        
        <!-- Y-Axis Labels -->
        <g font-family="Poppins, sans-serif" fill="#aaa" font-size="8">
            <text x="-5" y="180" text-anchor="end">0</text>
            <text x="-5" y="135" text-anchor="end">25%</text>
            <text x="-5" y="90" text-anchor="end">50%</text>
            <text x="-5" y="45" text-anchor="end">75%</text>
            <text x="-5" y="10" text-anchor="end">100%</text>
        </g>
        
        <!-- Grid Lines -->
        <g stroke="#333" stroke-width="0.5" stroke-dasharray="2,2">
            <line x1="0" y1="135" x2="300" y2="135" />
            <line x1="0" y1="90" x2="300" y2="90" />
            <line x1="0" y1="45" x2="300" y2="45" />
            
            <line x1="60" y1="0" x2="60" y2="180" />
            <line x1="120" y1="0" x2="120" y2="180" />
            <line x1="180" y1="0" x2="180" y2="180" />
            <line x1="240" y1="0" x2="240" y2="180" />
        </g>
        
        <!-- Historical Data Area -->
        <path d="M0,180 L0,100 L30,120 L60,90 L90,110 L120,80 L150,60 L180,70 L210,90 L240,70 L240,180 Z" fill="url(#chartGradient)" opacity="0.8" />
        
        <!-- Historical Data Line -->
        <path d="M0,100 L30,120 L60,90 L90,110 L120,80 L150,60 L180,70 L210,90 L240,70" fill="none" stroke="url(#chartLine)" stroke-width="2" filter="url(#glow)" />
        
        <!-- Data Points -->
        <g>
            <circle cx="0" cy="100" r="3" fill="white" />
            <circle cx="30" cy="120" r="3" fill="white" />
            <circle cx="60" cy="90" r="3" fill="white" />
            <circle cx="90" cy="110" r="3" fill="white" />
            <circle cx="120" cy="80" r="3" fill="white" />
            <circle cx="150" cy="60" r="3" fill="white" />
            <circle cx="180" cy="70" r="3" fill="white" />
            <circle cx="210" cy="90" r="3" fill="white" />
            <circle cx="240" cy="70" r="3" fill="white" />
        </g>
        
        <!-- Prediction Line (Dashed) -->
        <path d="M240,70 L270,50 L300,30" fill="none" stroke="#4CAF50" stroke-width="2" stroke-dasharray="4,4" filter="url(#glow)">
            <animate attributeName="opacity" values="0.5;1;0.5" dur="3s" repeatCount="indefinite" />
        </path>
        
        <!-- Prediction Area -->
        <path d="M240,180 L240,70 L270,50 L300,30 L300,180 Z" fill="url(#predictionGradient)" opacity="0.5" />
        
        <!-- Prediction Points -->
        <g>
            <circle cx="270" cy="50" r="3" fill="#4CAF50" />
            <circle cx="300" cy="30" r="3" fill="#4CAF50" />
        </g>
        
        <!-- Animated Prediction Pulse -->
        <circle cx="300" cy="30" r="5" fill="none" stroke="#4CAF50" stroke-width="1">
            <animate attributeName="r" values="5;15;5" dur="2s" repeatCount="indefinite" />
            <animate attributeName="opacity" values="1;0;1" dur="2s" repeatCount="indefinite" />
        </circle>
        
        <!-- Vertical Divider for Current Time -->
        <line x1="240" y1="0" x2="240" y2="180" stroke="#e62e2e" stroke-width="1" stroke-dasharray="5,3">
            <animate attributeName="opacity" values="0.5;1;0.5" dur="2s" repeatCount="indefinite" />
        </line>
        <text x="240" y="-5" font-family="Poppins, sans-serif" font-size="9" fill="#e62e2e" text-anchor="middle">NOW</text>
        
        <!-- Chart Labels -->
        <g font-family="Poppins, sans-serif" text-anchor="start">
            <text x="10" y="20" font-size="12" fill="white">Route Efficiency</text>
            <text x="10" y="35" font-size="9" fill="#aaa">Historical vs Predicted</text>
        </g>
        
        <!-- Legend -->
        <g transform="translate(220, 20)">
            <rect x="0" y="0" width="10" height="3" fill="url(#chartLine)" />
            <text x="15" y="3" font-family="Poppins, sans-serif" font-size="8" fill="#aaa">Actual</text>
            
            <rect x="0" y="10" width="10" height="3" fill="#4CAF50" />
            <text x="15" y="13" font-family="Poppins, sans-serif" font-size="8" fill="#aaa">Predicted</text>
        </g>
    </g>
    
    <!-- AI Brain Visualization -->
    <g transform="translate(400, 130)">
        <!-- Brain Outline -->
        <path d="M0,0 C20,-20 40,-20 60,0 C80,-20 100,-20 120,0 C120,20 100,40 60,50 C20,40 0,20 0,0 Z" fill="none" stroke="url(#brainGradient)" stroke-width="2" opacity="0.8" filter="url(#glow)" />
        
        <!-- Neural Network Nodes -->
        <g class="neural-nodes">
            <circle cx="30" cy="0" r="4" fill="#e62e2e" />
            <circle cx="60" cy="-10" r="4" fill="#e62e2e" />
            <circle cx="90" cy="0" r="4" fill="#e62e2e" />
            <circle cx="20" cy="15" r="4" fill="#e62e2e" />
            <circle cx="60" cy="20" r="4" fill="#e62e2e" />
            <circle cx="100" cy="15" r="4" fill="#e62e2e" />
            <circle cx="40" cy="30" r="4" fill="#e62e2e" />
            <circle cx="80" cy="30" r="4" fill="#e62e2e" />
        </g>
        
        <!-- Neural Network Connections -->
        <g class="neural-connections" stroke="#e62e2e" stroke-width="1" opacity="0.5">
            <line x1="30" y1="0" x2="60" y2="-10" />
            <line x1="60" y1="-10" x2="90" y2="0" />
            <line x1="30" y1="0" x2="20" y2="15" />
            <line x1="30" y1="0" x2="60" y2="20" />
            <line x1="60" y1="-10" x2="60" y2="20" />
            <line x1="60" y1="-10" x2="100" y2="15" />
            <line x1="90" y1="0" x2="100" y2="15" />
            <line x1="90" y1="0" x2="60" y2="20" />
            <line x1="20" y1="15" x2="40" y2="30" />
            <line x1="60" y1="20" x2="40" y2="30" />
            <line x1="60" y1="20" x2="80" y2="30" />
            <line x1="100" y1="15" x2="80" y2="30" />
        </g>
        
        <!-- Animated Pulses Along Neural Connections -->
        <g class="neural-pulses">
            <circle cx="0" cy="0" r="2" fill="white">
                <animateMotion path="M30,0 L60,-10" dur="1.5s" repeatCount="indefinite" />
                <animate attributeName="opacity" values="0;1;0" dur="1.5s" repeatCount="indefinite" />
            </circle>
            <circle cx="0" cy="0" r="2" fill="white">
                <animateMotion path="M60,-10 L90,0" dur="1.5s" begin="0.2s" repeatCount="indefinite" />
                <animate attributeName="opacity" values="0;1;0" dur="1.5s" begin="0.2s" repeatCount="indefinite" />
            </circle>
            <circle cx="0" cy="0" r="2" fill="white">
                <animateMotion path="M30,0 L60,20" dur="1.5s" begin="0.5s" repeatCount="indefinite" />
                <animate attributeName="opacity" values="0;1;0" dur="1.5s" begin="0.5s" repeatCount="indefinite" />
            </circle>
            <circle cx="0" cy="0" r="2" fill="white">
                <animateMotion path="M60,20 L80,30" dur="1.5s" begin="0.8s" repeatCount="indefinite" />
                <animate attributeName="opacity" values="0;1;0" dur="1.5s" begin="0.8s" repeatCount="indefinite" />
            </circle>
        </g>
    </g>
    
    <!-- Key Metrics Boxes -->
    <g transform="translate(350, 230)">
        <!-- Estimated Arrival Box -->
        <g transform="translate(0, 0)">
            <rect x="0" y="0" width="130" height="50" rx="5" ry="5" fill="#111" stroke="#333" stroke-width="1" />
            <text x="10" y="15" font-family="Poppins, sans-serif" font-size="10" fill="#aaa">Estimated Arrival</text>
            <text x="10" y="35" font-family="Poppins, sans-serif" font-size="16" fill="#4CAF50" font-weight="600">
                14:35
                <animate attributeName="textContent" values="14:35;14:28;14:32;14:35" dur="15s" repeatCount="indefinite" />
            </text>
            <text x="70" y="35" font-family="Poppins, sans-serif" font-size="10" fill="#aaa" opacity="0.7">On Time</text>
        </g>
    </g>
    
    <!-- Small Chart Widgets -->
    <g transform="translate(370, 80)">
        <!-- Delay Risk Chart -->
        <g>
            <rect x="0" y="0" width="100" height="60" rx="5" ry="5" fill="#111" stroke="#333" stroke-width="1" />
            <text x="10" y="15" font-family="Poppins, sans-serif" font-size="9" fill="#aaa">Delay Risk</text>
            
            <!-- Gauge Background -->
            <path d="M50,45 A25,25 0 1,1 50,44.99" stroke="#333" stroke-width="5" fill="none" stroke-linecap="round" />
            
            <!-- Gauge Progress with Animation -->
            <path d="M50,45 A25,25 0 0,1 41.7,20.7" stroke="#e62e2e" stroke-width="5" fill="none" stroke-linecap="round">
                <animate attributeName="d" values="M50,45 A25,25 0 0,1 41.7,20.7;M50,45 A25,25 0 0,1 25,35;M50,45 A25,25 0 0,1 41.7,20.7" dur="10s" repeatCount="indefinite" />
            </path>
            
            <!-- Percentage Text -->
            <text x="50" y="48" font-family="Poppins, sans-serif" font-size="12" fill="white" text-anchor="middle" font-weight="600">
                12%
                <animate attributeName="textContent" values="12%;28%;12%" dur="10s" repeatCount="indefinite" />
            </text>
        </g>
        
        <!-- Optimal Routes Box -->
        <g transform="translate(0, 70)">
            <rect x="0" y="0" width="100" height="60" rx="5" ry="5" fill="#111" stroke="#333" stroke-width="1" />
            <text x="10" y="15" font-family="Poppins, sans-serif" font-size="9" fill="#aaa">Route Options</text>
            
            <!-- Route Lines -->
            <g transform="translate(50, 35) scale(0.9)">
                <path d="M-30,-10 C-20,-20 -10,0 0,0 C10,0 20,-20 30,-10" fill="none" stroke="#666" stroke-width="2" />
                <path d="M-30,0 C-15,10 -10,-15 0,-5 C10,5 15,-10 30,0" fill="none" stroke="#e62e2e" stroke-width="2">
                    <animate attributeName="opacity" values="1;0.5;1" dur="3s" repeatCount="indefinite" />
                </path>
                <path d="M-30,10 C-20,20 -10,0 0,10 C10,20 20,0 30,10" fill="none" stroke="#666" stroke-width="2" />
                
                <!-- Start and End Points -->
                <circle cx="-30" cy="0" r="3" fill="#e62e2e" />
                <circle cx="30" cy="0" r="3" fill="#e62e2e" />
            </g>
        </g>
    </g>
    
    <!-- Data Processing Animation -->
    <g transform="translate(60, 280)">
        <rect x="-30" y="-10" width="400" height="20" fill="#0a0a0a" stroke="none" />
        <text x="0" y="5" font-family="Poppins, sans-serif" font-size="10" fill="#aaa">Processing data chunks:</text>
        
        <!-- Animated Data Blocks -->
        <g>
            <rect x="160" y="-5" width="10" height="10" fill="#e62e2e" opacity="0.7">
                <animate attributeName="x" values="160;400;160" dur="4s" repeatCount="indefinite" />
                <animate attributeName="opacity" values="0.7;0;0.7" dur="4s" repeatCount="indefinite" />
            </rect>
            <rect x="180" y="-5" width="10" height="10" fill="#e62e2e" opacity="0.7">
                <animate attributeName="x" values="180;400;180" dur="4s" begin="0.5s" repeatCount="indefinite" />
                <animate attributeName="opacity" values="0.7;0;0.7" dur="4s" begin="0.5s" repeatCount="indefinite" />
            </rect>
            <rect x="200" y="-5" width="10" height="10" fill="#e62e2e" opacity="0.7">
                <animate attributeName="x" values="200;400;200" dur="4s" begin="1s" repeatCount="indefinite" />
                <animate attributeName="opacity" values="0.7;0;0.7" dur="4s" begin="1s" repeatCount="indefinite" />
            </rect>
        </g>
    </g>
</svg> 