<svg xmlns="http://www.w3.org/2000/svg" viewBox="0 0 300 300" width="100%" height="100%">
    <defs>
        <!-- Gradients -->
        <linearGradient id="shieldGradient" x1="0%" y1="0%" x2="0%" y2="100%">
            <stop offset="0%" stop-color="#e62e2e" />
            <stop offset="100%" stop-color="#c51e1e" />
        </linearGradient>
        
        <linearGradient id="lockGradient" x1="0%" y1="0%" x2="0%" y2="100%">
            <stop offset="0%" stop-color="#555" />
            <stop offset="100%" stop-color="#333" />
        </linearGradient>
        
        <linearGradient id="checkGradient" x1="0%" y1="0%" x2="0%" y2="100%">
            <stop offset="0%" stop-color="#4CAF50" />
            <stop offset="100%" stop-color="#2E7D32" />
        </linearGradient>
        
        <!-- Filters -->
        <filter id="glow" x="-20%" y="-20%" width="140%" height="140%">
            <feGaussianBlur stdDeviation="3" result="blur" />
            <feComposite in="SourceGraphic" in2="blur" operator="over" />
        </filter>
        
        <filter id="shadow" x="-20%" y="-20%" width="140%" height="140%">
            <feDropShadow dx="0" dy="4" stdDeviation="4" flood-color="#000" flood-opacity="0.3" />
        </filter>
        
        <!-- Animated Lock Keyhole -->
        <circle id="keyholeDot" cx="0" cy="0" r="3" fill="#222">
            <animate attributeName="fill" values="#222;#e62e2e;#222" dur="3s" begin="2s" repeatCount="1" />
        </circle>
    </defs>
    
    <!-- Background -->
    <rect width="100%" height="100%" fill="#0a0a0a" rx="10" ry="10" />
    
    <!-- Shield Background with Pulse Animation -->
    <g transform="translate(150, 150)">
        <path d="M0,-100 L80,-60 L80,40 C80,80 45,100 0,120 C-45,100 -80,80 -80,40 L-80,-60 Z" 
            fill="none" 
            stroke="#333" 
            stroke-width="6"
            opacity="0.3">
            <animate attributeName="opacity" values="0.3;0.6;0.3" dur="3s" repeatCount="indefinite" />
        </path>
    </g>
    
    <!-- Shield with Animation -->
    <g transform="translate(150, 150)">
        <path d="M0,-100 L80,-60 L80,40 C80,80 45,100 0,120 C-45,100 -80,80 -80,40 L-80,-60 Z" 
            fill="url(#shieldGradient)" 
            opacity="0.9" 
            filter="url(#shadow)">
            <animate attributeName="d" 
                values="
                    M0,-100 L80,-60 L80,40 C80,80 45,100 0,120 C-45,100 -80,80 -80,40 L-80,-60 Z;
                    M0,-90 L70,-50 L70,40 C70,75 40,95 0,110 C-40,95 -70,75 -70,40 L-70,-50 Z;
                    M0,-100 L80,-60 L80,40 C80,80 45,100 0,120 C-45,100 -80,80 -80,40 L-80,-60 Z
                " 
                dur="3s" 
                repeatCount="indefinite" />
        </path>
        
        <!-- Animated Padlock -->
        <g transform="translate(0, 0) scale(0.8)">
            <!-- Lock Body -->
            <rect x="-35" y="-20" width="70" height="65" rx="10" ry="10" fill="url(#lockGradient)" filter="url(#shadow)">
                <animate attributeName="y" values="-20;-15;-20" dur="3s" repeatCount="indefinite" />
            </rect>
            
            <!-- Lock Shackle Animation (Opening and Closing) -->
            <path d="M-20,-20 C-20,-40 20,-40 20,-20" fill="none" stroke="#444" stroke-width="12" stroke-linecap="round">
                <animate attributeName="d" 
                    values="
                        M-20,-20 C-20,-40 20,-40 20,-20;
                        M-20,-20 C-20,-60 20,-60 20,-20;
                        M-20,-20 C-20,-40 20,-40 20,-20
                    " 
                    dur="5s" 
                    begin="1s"
                    repeatCount="indefinite" />
            </path>
            
            <!-- Keyhole -->
            <circle cx="0" cy="10" r="8" fill="#222" />
            <path d="M0,10 L0,25" stroke="#222" stroke-width="4" stroke-linecap="round" />
        </g>
        
        <!-- Animated Scan Line -->
        <line x1="-60" y1="0" x2="60" y2="0" stroke="#e62e2e" stroke-width="2" opacity="0.7">
            <animate attributeName="y" values="-80;80;-80" dur="3s" repeatCount="indefinite" />
            <animate attributeName="opacity" values="0.7;1;0.7" dur="3s" repeatCount="indefinite" />
        </line>
    </g>
    
    <!-- Digital Circuit Pattern -->
    <g stroke="#e62e2e" stroke-width="1" opacity="0.2">
        <path d="M30,30 H100 V70 H150 V120" fill="none" />
        <path d="M270,30 H200 V70 H150 V120" fill="none" />
        <path d="M30,270 H100 V230 H150 V180" fill="none" />
        <path d="M270,270 H200 V230 H150 V180" fill="none" />
        <circle cx="30" cy="30" r="5" fill="#e62e2e" opacity="0.5" />
        <circle cx="270" cy="30" r="5" fill="#e62e2e" opacity="0.5" />
        <circle cx="30" cy="270" r="5" fill="#e62e2e" opacity="0.5" />
        <circle cx="270" cy="270" r="5" fill="#e62e2e" opacity="0.5" />
    </g>
    
    <!-- Animated Check Mark for "Secured" Status -->
    <g transform="translate(150, 210)">
        <circle cx="0" cy="0" r="15" fill="#222" stroke="#333" stroke-width="2" />
        <path d="M-8,0 L-3,7 L8,-7" 
            fill="none" 
            stroke="#0f0" 
            stroke-width="3" 
            stroke-linecap="round" 
            stroke-linejoin="round"
            opacity="0"
            stroke-dasharray="30"
            stroke-dashoffset="30">
            <animate attributeName="opacity" values="0;1" dur="0.5s" begin="2s" fill="freeze" />
            <animate attributeName="stroke-dashoffset" values="30;0" dur="0.5s" begin="2s" fill="freeze" />
        </path>
    </g>
    
    <!-- Text Elements -->
    <g font-family="Poppins, sans-serif" text-anchor="middle">
        <text x="150" y="25" font-size="16" fill="#fff" font-weight="600">CARGO SECURITY</text>
        <text x="150" y="250" font-size="12" fill="#e62e2e" font-weight="500">
            TAMPER DETECTION
            <animate attributeName="opacity" values="1;0.7;1" dur="2s" repeatCount="indefinite" />
        </text>
        <text x="150" y="275" font-size="10" fill="#aaa">SYSTEM ACTIVE</text>
    </g>
    
    <!-- Animated Radar Blips -->
    <g transform="translate(150, 150)">
        <circle cx="0" cy="0" r="0" fill="none" stroke="#e62e2e" stroke-width="2">
            <animate attributeName="r" values="0;80;0" dur="3s" repeatCount="indefinite" />
            <animate attributeName="opacity" values="1;0;1" dur="3s" repeatCount="indefinite" />
        </circle>
        <circle cx="0" cy="0" r="0" fill="none" stroke="#e62e2e" stroke-width="2">
            <animate attributeName="r" values="0;80;0" dur="3s" begin="1s" repeatCount="indefinite" />
            <animate attributeName="opacity" values="1;0;1" dur="3s" begin="1s" repeatCount="indefinite" />
        </circle>
    </g>
    
    <!-- Small Animated Lock Icons at the Corners -->
    <g transform="translate(40, 40) scale(0.4)">
        <rect x="-20" y="-5" width="40" height="35" rx="5" ry="5" fill="#333" />
        <path d="M-10,-5 L-10,-15 C-10,-25 10,-25 10,-15 L10,-5" fill="none" stroke="#444" stroke-width="6" stroke-linecap="round" />
        <circle cx="0" cy="15" r="5" fill="#222" />
    </g>
    
    <g transform="translate(260, 40) scale(0.4)">
        <rect x="-20" y="-5" width="40" height="35" rx="5" ry="5" fill="#333" />
        <path d="M-10,-5 L-10,-15 C-10,-25 10,-25 10,-15 L10,-5" fill="none" stroke="#444" stroke-width="6" stroke-linecap="round" />
        <circle cx="0" cy="15" r="5" fill="#222" />
    </g>
    
    <g transform="translate(40, 260) scale(0.4)">
        <rect x="-20" y="-5" width="40" height="35" rx="5" ry="5" fill="#333" />
        <path d="M-10,-5 L-10,-15 C-10,-25 10,-25 10,-15 L10,-5" fill="none" stroke="#444" stroke-width="6" stroke-linecap="round" />
        <circle cx="0" cy="15" r="5" fill="#222" />
    </g>
    
    <g transform="translate(260, 260) scale(0.4)">
        <rect x="-20" y="-5" width="40" height="35" rx="5" ry="5" fill="#333" />
        <path d="M-10,-5 L-10,-15 C-10,-25 10,-25 10,-15 L10,-5" fill="none" stroke="#444" stroke-width="6" stroke-linecap="round" />
        <circle cx="0" cy="15" r="5" fill="#222" />
    </g>
</svg> 