<svg xmlns="http://www.w3.org/2000/svg" viewBox="0 0 800 600" width="800" height="600">
    <!-- Define gradients and filters -->
    <defs>
        <linearGradient id="routeGradient" x1="0%" y1="0%" x2="100%" y2="0%">
            <stop offset="0%" stop-color="#e62e2e" />
            <stop offset="100%" stop-color="#ff5c5c" />
        </linearGradient>
        
        <linearGradient id="checkpointGradient" x1="0%" y1="0%" x2="0%" y2="100%">
            <stop offset="0%" stop-color="#e62e2e" />
            <stop offset="100%" stop-color="#aa0000" />
        </linearGradient>
        
        <linearGradient id="truckGradient" x1="0%" y1="0%" x2="0%" y2="100%">
            <stop offset="0%" stop-color="#777" />
            <stop offset="100%" stop-color="#444" />
        </linearGradient>
        
        <!-- Map pattern -->
        <pattern id="mapPattern" patternUnits="userSpaceOnUse" width="100" height="100">
            <rect width="100" height="100" fill="#111" />
            <path d="M 0,50 L 100,50 M 50,0 L 50,100" stroke="#222" stroke-width="1" />
            <path d="M 0,0 L 100,100 M 0,100 L 100,0" stroke="#222" stroke-width="0.5" />
        </pattern>
    </defs>
    
    <!-- Background -->
    <rect width="800" height="600" fill="#0a0a0a" rx="15" ry="15" />
    
    <!-- Map Background -->
    <rect x="50" y="80" width="700" height="440" rx="10" ry="10" fill="url(#mapPattern)" stroke="#333" stroke-width="2" />
    
    <!-- Title -->
    <text x="400" y="40" font-family="Arial, sans-serif" font-size="24" fill="#fff" text-anchor="middle" font-weight="bold">
        REAL-TIME SHIPMENT VISIBILITY
    </text>
    
    <!-- Route Path -->
    <g id="route-path">
        <path d="M 100,200 C 200,150 250,350 400,300 C 550,250 600,400 700,330" fill="none" stroke="#333" stroke-width="6" stroke-linecap="round" />
        <path d="M 100,200 C 200,150 250,350 400,300 C 550,250 600,400 700,330" fill="none" stroke="url(#routeGradient)" stroke-width="4" stroke-linecap="round" />
    </g>
    
    <!-- Checkpoints -->
    <g id="checkpoints">
        <!-- Checkpoint 1 (Origin) -->
        <g id="checkpoint1" transform="translate(100, 200)">
            <circle cx="0" cy="0" r="10" fill="url(#checkpointGradient)" />
            <circle cx="0" cy="0" r="15" fill="none" stroke="#e62e2e" stroke-width="2" opacity="0.6" />
            <text x="0" y="-25" font-family="Arial, sans-serif" font-size="14" fill="#fff" text-anchor="middle">Origin</text>
            <text x="0" y="-45" font-family="Arial, sans-serif" font-size="12" fill="#aaa" text-anchor="middle">Delhi Warehouse</text>
            <text x="0" y="30" font-family="Arial, sans-serif" font-size="12" fill="#e62e2e" text-anchor="middle">DEPARTED</text>
        </g>
        
        <!-- Checkpoint 2 -->
        <g id="checkpoint2" transform="translate(250, 350)">
            <circle cx="0" cy="0" r="10" fill="url(#checkpointGradient)" />
            <circle cx="0" cy="0" r="15" fill="none" stroke="#e62e2e" stroke-width="2" opacity="0.6" />
            <text x="0" y="-25" font-family="Arial, sans-serif" font-size="14" fill="#fff" text-anchor="middle">Checkpoint 1</text>
            <text x="0" y="-45" font-family="Arial, sans-serif" font-size="12" fill="#aaa" text-anchor="middle">Jaipur Transit Hub</text>
            <text x="0" y="30" font-family="Arial, sans-serif" font-size="12" fill="#e62e2e" text-anchor="middle">CLEARED</text>
        </g>
        
        <!-- Checkpoint 3 -->
        <g id="checkpoint3" transform="translate(400, 300)">
            <circle cx="0" cy="0" r="10" fill="url(#checkpointGradient)" />
            <circle cx="0" cy="0" r="15" fill="none" stroke="#e62e2e" stroke-width="2" opacity="0.6" />
            <text x="0" y="-25" font-family="Arial, sans-serif" font-size="14" fill="#fff" text-anchor="middle">Checkpoint 2</text>
            <text x="0" y="-45" font-family="Arial, sans-serif" font-size="12" fill="#aaa" text-anchor="middle">Ahmedabad Hub</text>
            <text x="0" y="30" font-family="Arial, sans-serif" font-size="12" fill="#e62e2e" text-anchor="middle">IN TRANSIT</text>
        </g>
        
        <!-- Checkpoint 4 (Current) -->
        <g id="checkpoint4" transform="translate(550, 250)">
            <circle cx="0" cy="0" r="10" fill="url(#checkpointGradient)" />
            <circle cx="0" cy="0" r="15" fill="none" stroke="#e62e2e" stroke-width="2" opacity="0.6" />
            <text x="0" y="-25" font-family="Arial, sans-serif" font-size="14" fill="#fff" text-anchor="middle">Current Location</text>
            <text x="0" y="-45" font-family="Arial, sans-serif" font-size="12" fill="#aaa" text-anchor="middle">Surat Highway</text>
            <text x="0" y="30" font-family="Arial, sans-serif" font-size="12" fill="#e62e2e" text-anchor="middle">ACTIVE</text>
        </g>
        
        <!-- Checkpoint 5 (Destination) -->
        <g id="checkpoint5" transform="translate(700, 330)">
            <circle cx="0" cy="0" r="10" fill="#444" />
            <circle cx="0" cy="0" r="15" fill="none" stroke="#777" stroke-width="2" opacity="0.4" />
            <text x="0" y="-25" font-family="Arial, sans-serif" font-size="14" fill="#fff" text-anchor="middle">Destination</text>
            <text x="0" y="-45" font-family="Arial, sans-serif" font-size="12" fill="#aaa" text-anchor="middle">Mumbai DC</text>
            <text x="0" y="30" font-family="Arial, sans-serif" font-size="12" fill="#777" text-anchor="middle">PENDING</text>
        </g>
    </g>
    
    <!-- Truck/Vehicle -->
    <g id="truck" transform="translate(550, 250)">
        <!-- Truck body -->
        <g>
            <rect x="-15" y="-10" width="30" height="20" rx="3" ry="3" fill="url(#truckGradient)" />
            <rect x="-20" y="-7" width="10" height="14" rx="2" ry="2" fill="url(#truckGradient)" />
            <circle cx="-12" cy="13" r="5" fill="#333" stroke="#555" stroke-width="1" />
            <circle cx="12" cy="13" r="5" fill="#333" stroke="#555" stroke-width="1" />
            
            <!-- Signal indicator -->
            <circle cx="0" cy="0" r="3" fill="#e62e2e" />
        </g>
    </g>
    
    <!-- Information Status Panel -->
    <g id="status-panel" transform="translate(400, 550)">
        <rect x="-300" y="-30" width="600" height="60" rx="5" ry="5" fill="#111" stroke="#333" stroke-width="1" />
        
        <!-- ETA Section -->
        <g transform="translate(-225, 0)">
            <text x="0" y="-10" font-family="Arial, sans-serif" font-size="12" fill="#fff" text-anchor="middle">ESTIMATED ARRIVAL</text>
            <text x="0" y="10" font-family="Arial, sans-serif" font-size="14" fill="#e62e2e" text-anchor="middle">3 HRS 45 MIN</text>
        </g>
        
        <!-- Status Section -->
        <g transform="translate(-75, 0)">
            <text x="0" y="-10" font-family="Arial, sans-serif" font-size="12" fill="#fff" text-anchor="middle">STATUS</text>
            <text x="0" y="10" font-family="Arial, sans-serif" font-size="14" fill="#e62e2e" text-anchor="middle">ON SCHEDULE</text>
        </g>
        
        <!-- Distance Section -->
        <g transform="translate(75, 0)">
            <text x="0" y="-10" font-family="Arial, sans-serif" font-size="12" fill="#fff" text-anchor="middle">DISTANCE TRAVELED</text>
            <text x="0" y="10" font-family="Arial, sans-serif" font-size="14" fill="#e62e2e" text-anchor="middle">487 KM</text>
        </g>
        
        <!-- Next Checkpoint Section -->
        <g transform="translate(225, 0)">
            <text x="0" y="-10" font-family="Arial, sans-serif" font-size="12" fill="#fff" text-anchor="middle">NEXT CHECKPOINT</text>
            <text x="0" y="10" font-family="Arial, sans-serif" font-size="14" fill="#e62e2e" text-anchor="middle">MUMBAI DC</text>
        </g>
    </g>
    
    <!-- SIM Information -->
    <g id="sim-info" transform="translate(400, 90)">
        <rect x="-250" y="-30" width="200" height="50" rx="5" ry="5" fill="rgba(17, 17, 17, 0.7)" stroke="#333" stroke-width="1" />
        <rect x="-240" y="-20" width="30" height="30" rx="3" ry="3" fill="#333" />
        <path d="M -235,-10 L -225,-15 L -215,-10 L -225,-5 Z" fill="#e62e2e" />
        <text x="-200" y="-10" font-family="Arial, sans-serif" font-size="12" fill="#fff">SIM ID: TRKR-58921</text>
        <text x="-200" y="10" font-family="Arial, sans-serif" font-size="12" fill="#aaa">Last Update: Just Now</text>
        
        <!-- Network Strength -->
        <rect x="50" y="-30" width="200" height="50" rx="5" ry="5" fill="rgba(17, 17, 17, 0.7)" stroke="#333" stroke-width="1" />
        <text x="60" y="-10" font-family="Arial, sans-serif" font-size="12" fill="#fff">Network: Airtel 4G</text>
        <text x="60" y="10" font-family="Arial, sans-serif" font-size="12" fill="#aaa">Signal Strength: Excellent</text>
        
        <!-- Signal Bars -->
        <g transform="translate(180, -5) scale(0.8)">
            <rect x="0" y="0" width="5" height="10" fill="#e62e2e" />
            <rect x="8" y="-5" width="5" height="15" fill="#e62e2e" />
            <rect x="16" y="-10" width="5" height="20" fill="#e62e2e" />
            <rect x="24" y="-15" width="5" height="25" fill="#e62e2e" />
        </g>
    </g>
</svg> 