<?xml version="1.0" encoding="UTF-8"?>
<svg width="80" height="80" viewBox="0 0 80 80" xmlns="http://www.w3.org/2000/svg">
  <!-- Background Circle -->
  <circle cx="40" cy="40" r="38" fill="#1a1a1a" stroke="#333" stroke-width="1" />
  
  <!-- Gear Animation -->
  <g transform="translate(40, 40)">
    <!-- Main Gear -->
    <path d="M0,-25 L3,-15 C8,-15 13,-17 16,-20 L25,-15 L20,-5 C22,-2 23,2 23,5 L33,8 L28,18 C26,20 22,22 19,23 L23,33 L13,33 C10,32 7,30 4,28 L-5,35 L-10,25 C-13,24 -15,21 -17,19 L-28,22 L-25,12 C-25,9 -24,6 -23,2 L-33,-3 L-23,-10 C-21,-14 -19,-17 -15,-20 L-20,-30 L-10,-27 C-7,-30 -3,-32 0,-33 L2,-44 L12,-38 C16,-39 20,-39 25,-38 L30,-45 L33,-35 C35,-33 37,-31 38,-27 L48,-30 L42,-20 C42,-16 40,-12 37,-8 L45,-3 L35,3 C33,6 31,9 27,12 L33,18 L23,20 C20,22 16,24 12,24 L10,35 L0,25 Z" 
          fill="none" stroke="#e60000" stroke-width="2" stroke-linecap="round" stroke-linejoin="round" stroke-dasharray="330" stroke-dashoffset="330">
      <animate attributeName="stroke-dashoffset" from="330" to="0" dur="2s" fill="freeze" />
    </path>
    
    <!-- Inner Gear Circle -->
    <circle cx="0" cy="0" r="12" fill="none" stroke="#e60000" stroke-width="2">
      <animate attributeName="r" values="0;12" dur="0.7s" fill="freeze" begin="0.5s" />
    </circle>
    
    <!-- Gear Center -->
    <circle cx="0" cy="0" r="5" fill="#e60000">
      <animate attributeName="r" values="0;5" dur="0.5s" fill="freeze" begin="0.8s" />
    </circle>
    
    <!-- Rotating Animation for the Gear -->
    <animateTransform attributeName="transform" attributeType="XML" 
                      type="rotate" from="0" to="360" 
                      dur="20s" repeatCount="indefinite" />
  </g>
  
  <!-- Smaller Gear -->
  <g transform="translate(64, 25)">
    <!-- Small Gear -->
    <path d="M0,-13 L2,-7 C4,-7 6,-8 8,-10 L12,-7 L10,-2 C11,-1 12,1 12,3 L16,4 L14,9 C13,10 11,11 9,12 L11,16 L6,16 C5,16 3,15 2,14 L-2,17 L-5,12 C-6,12 -7,10 -8,9 L-14,11 L-12,6 C-12,4 -12,3 -11,1 L-16,-1 L-11,-5 C-10,-7 -9,-8 -7,-10 L-10,-15 L-5,-13 C-3,-15 -1,-16 0,-16 L1,-22 L6,-19 C8,-19 10,-19 12,-19 L15,-22 L16,-17 C17,-16 18,-15 19,-13 L24,-15 L21,-10 C21,-8 20,-6 18,-4 L22,-1 L17,1 C16,3 15,4 13,6 L16,9 L11,10 C10,11 8,12 6,12 L5,17 L0,12 Z" 
          fill="none" stroke="#e60000" stroke-width="1.5" stroke-linecap="round" stroke-linejoin="round" stroke-dasharray="180" stroke-dashoffset="180">
      <animate attributeName="stroke-dashoffset" from="180" to="0" dur="1.5s" fill="freeze" begin="0.5s" />
    </path>
    
    <!-- Inner Gear Circle -->
    <circle cx="0" cy="0" r="6" fill="none" stroke="#e60000" stroke-width="1.5">
      <animate attributeName="r" values="0;6" dur="0.5s" fill="freeze" begin="1s" />
    </circle>
    
    <!-- Gear Center -->
    <circle cx="0" cy="0" r="3" fill="#e60000">
      <animate attributeName="r" values="0;3" dur="0.4s" fill="freeze" begin="1.2s" />
    </circle>
    
    <!-- Rotating Animation for the Small Gear (opposite direction) -->
    <animateTransform attributeName="transform" attributeType="XML" 
                      type="rotate" from="0" to="-360" 
                      dur="15s" repeatCount="indefinite" />
  </g>
  
  <!-- Even Smaller Gear -->
  <g transform="translate(20, 55)">
    <!-- Tiny Gear -->
    <path d="M0,-8 L1,-4 C2,-4 3,-5 5,-6 L7,-4 L6,-1 C7,0 7,1 7,2 L10,3 L8,6 C8,6 7,7 6,7 L7,10 L4,10 C3,10 2,9 1,9 L-1,11 L-3,8 C-4,7 -5,6 -5,6 L-9,7 L-8,4 C-8,3 -7,2 -7,1 L-10,-1 L-7,-3 C-6,-4 -6,-5 -5,-6 L-6,-9 L-3,-8 C-2,-9 -1,-10 0,-10 L1,-13 L4,-12 C5,-12 6,-12 8,-12 L9,-14 L10,-11 C11,-10 11,-9 12,-8 L15,-9 L13,-6 C13,-5 12,-4 11,-3 L14,-1 L11,1 C10,2 9,3 8,4 L10,6 L7,6 C6,7 5,7 4,7 L3,11 L0,8 Z" 
          fill="none" stroke="#e60000" stroke-width="1" stroke-linecap="round" stroke-linejoin="round" stroke-dasharray="120" stroke-dashoffset="120">
      <animate attributeName="stroke-dashoffset" from="120" to="0" dur="1.5s" fill="freeze" begin="1s" />
    </path>
    
    <!-- Inner Gear Circle -->
    <circle cx="0" cy="0" r="4" fill="none" stroke="#e60000" stroke-width="1">
      <animate attributeName="r" values="0;4" dur="0.5s" fill="freeze" begin="1.5s" />
    </circle>
    
    <!-- Gear Center -->
    <circle cx="0" cy="0" r="2" fill="#e60000">
      <animate attributeName="r" values="0;2" dur="0.4s" fill="freeze" begin="1.7s" />
    </circle>
    
    <!-- Rotating Animation for the Tiny Gear -->
    <animateTransform attributeName="transform" attributeType="XML" 
                      type="rotate" from="0" to="360" 
                      dur="12s" repeatCount="indefinite" />
  </g>
  
  <!-- Automation Flow Lines -->
  <g stroke="#e60000" stroke-width="0.8" stroke-linecap="round" opacity="0">
    <animate attributeName="opacity" values="0;0.7" dur="1s" fill="freeze" begin="2s" />
    
    <!-- Connection Lines between Gears -->
    <line x1="55" y1="30" x2="48" y2="35" stroke-dasharray="15" stroke-dashoffset="15">
      <animate attributeName="stroke-dashoffset" values="15;0" dur="0.8s" fill="freeze" begin="2s" />
    </line>
    <line x1="27" y1="50" x2="35" y2="45" stroke-dasharray="15" stroke-dashoffset="15">
      <animate attributeName="stroke-dashoffset" values="15;0" dur="0.8s" fill="freeze" begin="2.2s" />
    </line>
    
    <!-- Data Flow Dots -->
    <circle cx="50" cy="33" r="1" fill="#e60000">
      <animate attributeName="cx" values="55;48" dur="1s" repeatCount="indefinite" begin="2.5s" />
      <animate attributeName="cy" values="30;35" dur="1s" repeatCount="indefinite" begin="2.5s" />
    </circle>
    <circle cx="32" cy="47" r="1" fill="#e60000">
      <animate attributeName="cx" values="27;35" dur="1.2s" repeatCount="indefinite" begin="2.7s" />
      <animate attributeName="cy" values="50;45" dur="1.2s" repeatCount="indefinite" begin="2.7s" />
    </circle>
  </g>
  
  <!-- Pulse effect -->
  <circle cx="40" cy="40" r="30" fill="none" stroke="#e60000" stroke-width="0.8" opacity="0">
    <animate attributeName="r" values="30;36" dur="2.5s" repeatCount="indefinite" />
    <animate attributeName="opacity" values="0.3;0" dur="2.5s" repeatCount="indefinite" />
  </circle>
</svg> 