<?xml version="1.0" encoding="UTF-8"?>
<svg width="80" height="80" viewBox="0 0 80 80" xmlns="http://www.w3.org/2000/svg">
  <!-- Background Circle -->
  <circle cx="40" cy="40" r="38" fill="#1a1a1a" stroke="#333" stroke-width="1" />
  
  <!-- Brain with Data Connections -->
  <g transform="translate(20, 15) scale(0.8)">
    <!-- Brain Outline -->
    <path d="M25,50 C10,45 5,30 10,20 C15,10 25,5 35,10 C37,5 43,5 45,10 C55,5 65,10 70,20 C75,30 70,45 55,50 L50,55 C40,60 30,60 20,55 L25,50 Z" 
          fill="none" stroke="#e60000" stroke-width="2" stroke-linecap="round" stroke-linejoin="round">
      <animate attributeName="stroke-dasharray" from="200" to="0" dur="2s" fill="freeze" />
    </path>
    
    <!-- Brain Lobes/Details -->
    <path d="M25,50 C15,40 15,30 20,25 M20,25 C30,15 40,20 45,25 M45,25 C50,20 60,15 70,25 M70,25 C75,30 75,40 65,50" 
          fill="none" stroke="#e60000" stroke-width="1.5" stroke-linecap="round" opacity="0.7" stroke-dasharray="40" stroke-dashoffset="40">
      <animate attributeName="stroke-dashoffset" from="40" to="0" dur="1.5s" fill="freeze" begin="0.5s" />
    </path>
    
    <!-- Data Nodes -->
    <g>
      <circle cx="20" cy="25" r="0" fill="#e60000">
        <animate attributeName="r" values="0;2.5" dur="0.3s" fill="freeze" begin="1s" />
      </circle>
      <circle cx="45" cy="25" r="0" fill="#e60000">
        <animate attributeName="r" values="0;2.5" dur="0.3s" fill="freeze" begin="1.2s" />
      </circle>
      <circle cx="70" cy="25" r="0" fill="#e60000">
        <animate attributeName="r" values="0;2.5" dur="0.3s" fill="freeze" begin="1.4s" />
      </circle>
      <circle cx="25" cy="50" r="0" fill="#e60000">
        <animate attributeName="r" values="0;2.5" dur="0.3s" fill="freeze" begin="1.6s" />
      </circle>
      <circle cx="55" cy="50" r="0" fill="#e60000">
        <animate attributeName="r" values="0;2.5" dur="0.3s" fill="freeze" begin="1.8s" />
      </circle>
    </g>
    
    <!-- Data Flows - Electric Impulses -->
    <g stroke="#e60000" stroke-width="1.5" stroke-linecap="round">
      <line x1="22" y1="27" x2="43" y2="25" opacity="0">
        <animate attributeName="opacity" values="0;0.8;0" dur="1s" repeatCount="indefinite" begin="2s" />
      </line>
      <line x1="47" y1="25" x2="68" y2="25" opacity="0">
        <animate attributeName="opacity" values="0;0.8;0" dur="1.5s" repeatCount="indefinite" begin="2.2s" />
      </line>
      <line x1="22" y1="27" x2="25" y2="48" opacity="0">
        <animate attributeName="opacity" values="0;0.8;0" dur="1.2s" repeatCount="indefinite" begin="2.3s" />
      </line>
      <line x1="47" y1="27" x2="53" y2="48" opacity="0">
        <animate attributeName="opacity" values="0;0.8;0" dur="1.3s" repeatCount="indefinite" begin="2.4s" />
      </line>
      <line x1="68" y1="27" x2="53" y2="48" opacity="0">
        <animate attributeName="opacity" values="0;0.8;0" dur="1.7s" repeatCount="indefinite" begin="2.5s" />
      </line>
    </g>
  </g>
  
  <!-- Chart Elements -->
  <g transform="translate(18, 55)">
    <!-- Bar Chart -->
    <rect x="0" y="0" width="6" height="0" fill="#e60000" opacity="0.8">
      <animate attributeName="height" values="0;12" dur="0.5s" fill="freeze" begin="2.5s" />
    </rect>
    <rect x="8" y="0" width="6" height="0" fill="#e60000" opacity="0.8">
      <animate attributeName="height" values="0;8" dur="0.5s" fill="freeze" begin="2.6s" />
    </rect>
    <rect x="16" y="0" width="6" height="0" fill="#e60000" opacity="0.8">
      <animate attributeName="height" values="0;14" dur="0.5s" fill="freeze" begin="2.7s" />
    </rect>
    <rect x="24" y="0" width="6" height="0" fill="#e60000" opacity="0.8">
      <animate attributeName="height" values="0;5" dur="0.5s" fill="freeze" begin="2.8s" />
    </rect>
  </g>
  
  <!-- Line Chart -->
  <g transform="translate(36, 55)">
    <polyline points="0,10 6,6 12,8 18,2 24,5" 
             fill="none" stroke="#e60000" stroke-width="1.5" opacity="0">
      <animate attributeName="opacity" values="0;1" dur="0.8s" fill="freeze" begin="2.9s" />
      <animate attributeName="stroke-dasharray" from="50" to="0" dur="0.8s" fill="freeze" begin="2.9s" />
    </polyline>
    <circle cx="0" cy="10" r="0" fill="#e60000">
      <animate attributeName="r" values="0;1.5" dur="0.2s" fill="freeze" begin="2.9s" />
    </circle>
    <circle cx="6" cy="6" r="0" fill="#e60000">
      <animate attributeName="r" values="0;1.5" dur="0.2s" fill="freeze" begin="3s" />
    </circle>
    <circle cx="12" cy="8" r="0" fill="#e60000">
      <animate attributeName="r" values="0;1.5" dur="0.2s" fill="freeze" begin="3.1s" />
    </circle>
    <circle cx="18" cy="2" r="0" fill="#e60000">
      <animate attributeName="r" values="0;1.5" dur="0.2s" fill="freeze" begin="3.2s" />
    </circle>
    <circle cx="24" cy="5" r="0" fill="#e60000">
      <animate attributeName="r" values="0;1.5" dur="0.2s" fill="freeze" begin="3.3s" />
    </circle>
  </g>
  
  <!-- Glowing effect -->
  <circle cx="40" cy="40" r="30" fill="none" stroke="#e60000" stroke-width="0.8" opacity="0">
    <animate attributeName="r" values="30;38" dur="3s" repeatCount="indefinite" />
    <animate attributeName="opacity" values="0.4;0" dur="3s" repeatCount="indefinite" />
  </circle>
</svg> 