<svg xmlns="http://www.w3.org/2000/svg" viewBox="0 0 800 600" width="800" height="600">
  <!-- Definitions -->
  <defs>
    <!-- Grid pattern for background -->
    <pattern id="grid" width="40" height="40" patternUnits="userSpaceOnUse">
      <path d="M 40 0 L 0 0 0 40" fill="none" stroke="#333" stroke-width="0.5" opacity="0.3"/>
    </pattern>
    
    <!-- Glow filter -->
    <filter id="glow" x="-20%" y="-20%" width="140%" height="140%">
      <feGaussianBlur stdDeviation="4" result="blur" />
      <feComponentTransfer>
        <feFuncA type="linear" slope="0.6" intercept="0" />
      </feComponentTransfer>
      <feBlend in="SourceGraphic" in2="blur" mode="screen" />
    </filter>
    
    <!-- Truck symbol -->
    <symbol id="truck" viewBox="0 0 60 30">
      <rect x="10" y="15" width="35" height="15" fill="#c41f1f" rx="2" />
      <rect x="0" y="20" width="10" height="10" fill="#e63946" rx="1" />
      <rect x="45" y="15" width="10" height="15" fill="#c41f1f" rx="1" />
      <circle cx="12" cy="30" r="4" fill="#333" />
      <circle cx="12" cy="30" r="1.5" fill="#777" />
      <circle cx="42" cy="30" r="4" fill="#333" />
      <circle cx="42" cy="30" r="1.5" fill="#777" />
      <circle cx="52" cy="30" r="4" fill="#333" />
      <circle cx="52" cy="30" r="1.5" fill="#777" />
      <rect x="5" y="17" width="5" height="3" fill="#f1faee" />
      <rect x="47" y="17" width="6" height="3" fill="#f1faee" />
    </symbol>
    
    <!-- Warehouse symbol -->
    <symbol id="warehouse" viewBox="0 0 50 50">
      <rect x="5" y="20" width="40" height="30" fill="#333" />
      <polygon points="5,20 25,0 45,20" fill="#555" />
      <rect x="15" y="30" width="10" height="20" fill="#777" />
      <rect x="35" y="25" width="5" height="5" fill="#999" />
      <rect x="10" y="25" width="5" height="5" fill="#999" />
    </symbol>
    
    <!-- Location pin -->
    <symbol id="location" viewBox="0 0 24 24">
      <path d="M12 0C7.8 0 4 3.4 4 7.6c0 4.2 3.5 9.6 8 16.4 4.5-6.8 8-12.2 8-16.4C20 3.4 16.2 0 12 0z" fill="#3a86ff" />
      <circle cx="12" cy="7.5" r="3.5" fill="#fff" />
    </symbol>
    
    <!-- Map pin -->
    <symbol id="pin" viewBox="0 0 24 24">
      <path d="M12 0C7.8 0 4 3.4 4 7.6c0 4.2 3.5 9.6 8 16.4 4.5-6.8 8-12.2 8-16.4C20 3.4 16.2 0 12 0z" fill="#e63946" />
      <circle cx="12" cy="7.5" r="3.5" fill="#fff" />
    </symbol>
  </defs>
  
  <!-- Background -->
  <rect width="100%" height="100%" fill="#1a1a2e" />
  <rect width="100%" height="100%" fill="url(#grid)" />
  
  <!-- Map base with slightly curved areas representing roads -->
  <path d="M50,300 C150,250 250,350 350,300 S500,250 650,300 S750,400 750,500" stroke="#333" stroke-width="25" fill="none" opacity="0.5" />
  <path d="M100,150 C200,100 350,200 450,150 S600,100 700,200" stroke="#333" stroke-width="20" fill="none" opacity="0.5" />
  <path d="M50,450 C150,500 300,450 450,500 S600,450 750,400" stroke="#333" stroke-width="15" fill="none" opacity="0.5" />
  
  <!-- Optimized Route 1 - Primary route -->
  <path id="route1" d="M100,300 C200,250 300,350 400,300 S550,250 700,300" stroke="#e63946" stroke-width="4" fill="none" stroke-dasharray="0" stroke-linecap="round">
    <animate attributeName="stroke-dashoffset" from="1000" to="0" dur="30s" repeatCount="indefinite" />
  </path>
  
  <!-- Optimized Route 2 - Secondary route -->
  <path id="route2" d="M150,200 C250,150 350,200 450,150 S550,100 650,150" stroke="#3a86ff" stroke-width="4" fill="none" stroke-dasharray="0" stroke-linecap="round">
    <animate attributeName="stroke-dashoffset" from="1000" to="0" dur="40s" repeatCount="indefinite" />
  </path>
  
  <!-- Optimized Route 3 - Alternate route -->
  <path id="route3" d="M200,400 C300,450 400,400 500,450 S600,400 700,350" stroke="#8ac926" stroke-width="4" fill="none" stroke-dasharray="0" stroke-linecap="round">
    <animate attributeName="stroke-dashoffset" from="1000" to="0" dur="35s" repeatCount="indefinite" />
  </path>
  
  <!-- Route connections -->
  <path d="M400,300 L450,150" stroke="#999" stroke-width="2" stroke-dasharray="5,5" fill="none" />
  <path d="M550,250 L550,100" stroke="#999" stroke-width="2" stroke-dasharray="5,5" fill="none" />
  <path d="M300,350 L300,450" stroke="#999" stroke-width="2" stroke-dasharray="5,5" fill="none" />
  <path d="M700,300 L700,350" stroke="#999" stroke-width="2" stroke-dasharray="5,5" fill="none" />
  
  <!-- Location markers -->
  <use href="#warehouse" x="75" y="275" width="50" height="50" />
  <use href="#location" x="390" y="280" width="30" height="30" />
  <use href="#location" x="440" y="130" width="30" height="30" />
  <use href="#location" x="290" y="430" width="30" height="30" />
  <use href="#location" x="540" y="80" width="30" height="30" />
  <use href="#pin" x="680" y="280" width="40" height="40" />
  <use href="#pin" x="680" y="330" width="40" height="40" />
  
  <!-- Animated trucks -->
  <!-- Truck on route 1 -->
  <use href="#truck" width="40" height="20">
    <animateMotion
      path="M100,300 C200,250 300,350 400,300 S550,250 700,300"
      dur="15s"
      repeatCount="indefinite"
      rotate="auto"
    />
  </use>
  
  <!-- Truck on route 2 -->
  <use href="#truck" width="30" height="15">
    <animateMotion
      path="M150,200 C250,150 350,200 450,150 S550,100 650,150"
      dur="18s"
      repeatCount="indefinite"
      rotate="auto"
    />
  </use>
  
  <!-- Truck on route 3 -->
  <use href="#truck" width="35" height="17.5">
    <animateMotion
      path="M200,400 C300,450 400,400 500,450 S600,400 700,350"
      dur="20s"
      repeatCount="indefinite"
      rotate="auto"
    />
  </use>
  
  <!-- Legend -->
  <rect x="30" y="30" width="180" height="100" fill="rgba(26, 26, 46, 0.8)" rx="5" />
  <text x="40" y="50" font-family="'Poppins', sans-serif" font-size="12" fill="#fff">Route Legend:</text>
  <line x1="40" y1="65" x2="70" y2="65" stroke="#e63946" stroke-width="3" />
  <text x="80" y="70" font-family="'Poppins', sans-serif" font-size="10" fill="#fff">Primary Route</text>
  <line x1="40" y1="85" x2="70" y2="85" stroke="#3a86ff" stroke-width="3" />
  <text x="80" y="90" font-family="'Poppins', sans-serif" font-size="10" fill="#fff">Secondary Route</text>
  <line x1="40" y1="105" x2="70" y2="105" stroke="#8ac926" stroke-width="3" />
  <text x="80" y="110" font-family="'Poppins', sans-serif" font-size="10" fill="#fff">Alternate Route</text>
  
  <!-- Data overlay -->
  <rect x="580" y="30" width="190" height="160" fill="rgba(26, 26, 46, 0.8)" rx="5" />
  <text x="590" y="50" font-family="'Poppins', sans-serif" font-size="12" fill="#fff">Route Metrics:</text>
  
  <text x="590" y="75" font-family="'Poppins', sans-serif" font-size="10" fill="#fff">Total Distance:</text>
  <text x="680" y="75" font-family="'Poppins', sans-serif" font-size="10" fill="#e63946">458 km</text>
  
  <text x="590" y="95" font-family="'Poppins', sans-serif" font-size="10" fill="#fff">Fuel Saved:</text>
  <text x="680" y="95" font-family="'Poppins', sans-serif" font-size="10" fill="#3a86ff">27%</text>
  
  <text x="590" y="115" font-family="'Poppins', sans-serif" font-size="10" fill="#fff">Delivery Time:</text>
  <text x="680" y="115" font-family="'Poppins', sans-serif" font-size="10" fill="#8ac926">12h 30m</text>
  
  <text x="590" y="135" font-family="'Poppins', sans-serif" font-size="10" fill="#fff">Carbon Reduction:</text>
  <text x="680" y="135" font-family="'Poppins', sans-serif" font-size="10" fill="#3a86ff">31%</text>
  
  <text x="590" y="155" font-family="'Poppins', sans-serif" font-size="10" fill="#fff">Delivery Points:</text>
  <text x="680" y="155" font-family="'Poppins', sans-serif" font-size="10" fill="#e63946">5</text>
  
  <!-- AI optimization animation -->
  <g transform="translate(400, 520)">
    <text x="0" y="0" font-family="'Poppins', sans-serif" font-size="14" fill="#fff" text-anchor="middle">AI ROUTE OPTIMIZATION</text>
    <rect x="-100" y="10" width="200" height="10" fill="#333" rx="5" />
    <rect x="-100" y="10" width="200" height="10" fill="none" stroke="#e63946" stroke-width="1" rx="5" />
    <rect x="-100" y="10" width="0" height="10" fill="#e63946" rx="5">
      <animate attributeName="width" values="0; 50; 100; 150; 180; 200" dur="5s" repeatCount="indefinite" />
    </rect>
  </g>
  
  <!-- Circuit-like design elements -->
  <path d="M30,540 L100,540 L120,520 L200,520" stroke="#e63946" stroke-width="2" fill="none" filter="url(#glow)" />
  <path d="M770,540 L700,540 L680,520 L600,520" stroke="#3a86ff" stroke-width="2" fill="none" filter="url(#glow)" />
  <circle cx="30" cy="540" r="5" fill="#e63946" filter="url(#glow)" />
  <circle cx="200" cy="520" r="5" fill="#e63946" filter="url(#glow)" />
  <circle cx="770" cy="540" r="5" fill="#3a86ff" filter="url(#glow)" />
  <circle cx="600" cy="520" r="5" fill="#3a86ff" filter="url(#glow)" />
  
  <!-- Title at bottom -->
  <text x="400" y="570" font-family="'Poppins', sans-serif" font-size="16" fill="#fff" text-anchor="middle">
    TRANSPORT MANAGEMENT SOLUTION - ROUTE OPTIMIZATION
  </text>
</svg>