<?xml version="1.0" encoding="UTF-8"?>
<svg width="80" height="80" viewBox="0 0 80 80" xmlns="http://www.w3.org/2000/svg">
  <!-- Background Circle -->
  <circle cx="40" cy="40" r="38" fill="#1a1a1a" stroke="#333" stroke-width="1" />
  
  <!-- Growth Chart -->
  <g transform="translate(15, 55)">
    <!-- Coordinate Axes -->
    <line x1="0" y1="0" x2="0" y2="-40" stroke="#e60000" stroke-width="1.5" stroke-linecap="round" stroke-dasharray="40" stroke-dashoffset="40">
      <animate attributeName="stroke-dashoffset" from="40" to="0" dur="0.8s" fill="freeze" />
    </line>
    <line x1="0" y1="0" x2="50" y2="0" stroke="#e60000" stroke-width="1.5" stroke-linecap="round" stroke-dasharray="50" stroke-dashoffset="50">
      <animate attributeName="stroke-dashoffset" from="50" to="0" dur="0.8s" fill="freeze" begin="0.2s" />
    </line>
    
    <!-- Small Grid Lines -->
    <g stroke="#e60000" stroke-width="0.5" opacity="0.3" stroke-dasharray="1 1">
      <line x1="0" y1="-10" x2="50" y2="-10">
        <animate attributeName="opacity" from="0" to="0.3" dur="0.3s" fill="freeze" begin="1s" />
      </line>
      <line x1="0" y1="-20" x2="50" y2="-20">
        <animate attributeName="opacity" from="0" to="0.3" dur="0.3s" fill="freeze" begin="1.1s" />
      </line>
      <line x1="0" y1="-30" x2="50" y2="-30">
        <animate attributeName="opacity" from="0" to="0.3" dur="0.3s" fill="freeze" begin="1.2s" />
      </line>
      <line x1="10" y1="0" x2="10" y2="-40">
        <animate attributeName="opacity" from="0" to="0.3" dur="0.3s" fill="freeze" begin="1.3s" />
      </line>
      <line x1="20" y1="0" x2="20" y2="-40">
        <animate attributeName="opacity" from="0" to="0.3" dur="0.3s" fill="freeze" begin="1.4s" />
      </line>
      <line x1="30" y1="0" x2="30" y2="-40">
        <animate attributeName="opacity" from="0" to="0.3" dur="0.3s" fill="freeze" begin="1.5s" />
      </line>
      <line x1="40" y1="0" x2="40" y2="-40">
        <animate attributeName="opacity" from="0" to="0.3" dur="0.3s" fill="freeze" begin="1.6s" />
      </line>
    </g>
    
    <!-- Growth Path -->
    <polyline points="5,-5 10,-8 15,-10 20,-15 25,-16 30,-20 35,-28 40,-38" 
             fill="none" stroke="#e60000" stroke-width="2" stroke-linecap="round" stroke-linejoin="round" 
             stroke-dasharray="100" stroke-dashoffset="100">
      <animate attributeName="stroke-dashoffset" from="100" to="0" dur="1.5s" fill="freeze" begin="1.7s" />
    </polyline>
    
    <!-- Data Points -->
    <g fill="#e60000">
      <circle cx="5" cy="-5" r="0">
        <animate attributeName="r" values="0;2" dur="0.2s" fill="freeze" begin="1.9s" />
      </circle>
      <circle cx="10" cy="-8" r="0">
        <animate attributeName="r" values="0;2" dur="0.2s" fill="freeze" begin="2s" />
      </circle>
      <circle cx="15" cy="-10" r="0">
        <animate attributeName="r" values="0;2" dur="0.2s" fill="freeze" begin="2.1s" />
      </circle>
      <circle cx="20" cy="-15" r="0">
        <animate attributeName="r" values="0;2" dur="0.2s" fill="freeze" begin="2.2s" />
      </circle>
      <circle cx="25" cy="-16" r="0">
        <animate attributeName="r" values="0;2" dur="0.2s" fill="freeze" begin="2.3s" />
      </circle>
      <circle cx="30" cy="-20" r="0">
        <animate attributeName="r" values="0;2" dur="0.2s" fill="freeze" begin="2.4s" />
      </circle>
      <circle cx="35" cy="-28" r="0">
        <animate attributeName="r" values="0;2" dur="0.2s" fill="freeze" begin="2.5s" />
      </circle>
      <circle cx="40" cy="-38" r="0">
        <animate attributeName="r" values="0;2" dur="0.2s" fill="freeze" begin="2.6s" />
      </circle>
    </g>
    
    <!-- Area under the growth curve -->
    <path d="M5,-5 L10,-8 L15,-10 L20,-15 L25,-16 L30,-20 L35,-28 L40,-38 L40,0 L5,0 Z" 
          fill="#e60000" opacity="0">
      <animate attributeName="opacity" values="0;0.15" dur="0.8s" fill="freeze" begin="2.7s" />
    </path>
  </g>
  
  <!-- Expanding Buildings/Servers -->
  <g transform="translate(40, 25)">
    <!-- Central Server/Building -->
    <rect x="-5" y="-8" width="10" height="16" rx="1" fill="#e60000" opacity="0.9">
      <animate attributeName="height" values="0;16" dur="0.6s" fill="freeze" begin="0.5s" />
      <animate attributeName="y" values="8;-8" dur="0.6s" fill="freeze" begin="0.5s" />
    </rect>
    
    <!-- Server Windows/Details -->
    <rect x="-3" y="-6" width="6" height="2" fill="#1a1a1a" opacity="0">
      <animate attributeName="opacity" values="0;1" dur="0.2s" fill="freeze" begin="1.1s" />
    </rect>
    <rect x="-3" y="-2" width="6" height="2" fill="#1a1a1a" opacity="0">
      <animate attributeName="opacity" values="0;1" dur="0.2s" fill="freeze" begin="1.2s" />
    </rect>
    <rect x="-3" y="2" width="6" height="2" fill="#1a1a1a" opacity="0">
      <animate attributeName="opacity" values="0;1" dur="0.2s" fill="freeze" begin="1.3s" />
    </rect>
  </g>
  
  <!-- Left Expanding Buildings/Servers -->
  <g transform="translate(28, 28)" opacity="0">
    <animate attributeName="opacity" values="0;1" dur="0.5s" fill="freeze" begin="3s" />
    <rect x="-4" y="-6" width="8" height="12" rx="1" fill="#e60000" opacity="0.8" />
    <rect x="-2" y="-4" width="4" height="1.5" fill="#1a1a1a" />
    <rect x="-2" y="-1" width="4" height="1.5" fill="#1a1a1a" />
    <rect x="-2" y="2" width="4" height="1.5" fill="#1a1a1a" />
  </g>
  
  <!-- Right Expanding Buildings/Servers -->
  <g transform="translate(52, 28)" opacity="0">
    <animate attributeName="opacity" values="0;1" dur="0.5s" fill="freeze" begin="3.2s" />
    <rect x="-4" y="-6" width="8" height="12" rx="1" fill="#e60000" opacity="0.8" />
    <rect x="-2" y="-4" width="4" height="1.5" fill="#1a1a1a" />
    <rect x="-2" y="-1" width="4" height="1.5" fill="#1a1a1a" />
    <rect x="-2" y="2" width="4" height="1.5" fill="#1a1a1a" />
  </g>
  
  <!-- Second Level Left Expanding -->
  <g transform="translate(20, 31)" opacity="0">
    <animate attributeName="opacity" values="0;1" dur="0.5s" fill="freeze" begin="3.4s" />
    <rect x="-3" y="-4" width="6" height="8" rx="1" fill="#e60000" opacity="0.7" />
    <rect x="-1.5" y="-2.5" width="3" height="1" fill="#1a1a1a" />
    <rect x="-1.5" y="-0.5" width="3" height="1" fill="#1a1a1a" />
    <rect x="-1.5" y="1.5" width="3" height="1" fill="#1a1a1a" />
  </g>
  
  <!-- Second Level Right Expanding -->
  <g transform="translate(60, 31)" opacity="0">
    <animate attributeName="opacity" values="0;1" dur="0.5s" fill="freeze" begin="3.6s" />
    <rect x="-3" y="-4" width="6" height="8" rx="1" fill="#e60000" opacity="0.7" />
    <rect x="-1.5" y="-2.5" width="3" height="1" fill="#1a1a1a" />
    <rect x="-1.5" y="-0.5" width="3" height="1" fill="#1a1a1a" />
    <rect x="-1.5" y="1.5" width="3" height="1" fill="#1a1a1a" />
  </g>
  
  <!-- Connection Lines -->
  <g stroke="#e60000" stroke-width="0.8" stroke-dasharray="5,2" opacity="0">
    <animate attributeName="opacity" values="0;0.7" dur="0.5s" fill="freeze" begin="3.8s" />
    
    <!-- Connecting Lines -->
    <line x1="40" y1="25" x2="28" y2="28" />
    <line x1="40" y1="25" x2="52" y2="28" />
    <line x1="28" y1="28" x2="20" y2="31" />
    <line x1="52" y1="28" x2="60" y2="31" />
  </g>
  
  <!-- Data Flow Circles -->
  <circle cx="34" cy="26" r="1" fill="#e60000" opacity="0">
    <animate attributeName="opacity" values="0;1;0" dur="2s" repeatCount="indefinite" begin="4s" />
    <animate attributeName="cx" values="40;28;40" dur="2s" repeatCount="indefinite" begin="4s" />
    <animate attributeName="cy" values="25;28;25" dur="2s" repeatCount="indefinite" begin="4s" />
  </circle>
  
  <circle cx="46" cy="26" r="1" fill="#e60000" opacity="0">
    <animate attributeName="opacity" values="0;1;0" dur="2s" repeatCount="indefinite" begin="4.2s" />
    <animate attributeName="cx" values="40;52;40" dur="2s" repeatCount="indefinite" begin="4.2s" />
    <animate attributeName="cy" values="25;28;25" dur="2s" repeatCount="indefinite" begin="4.2s" />
  </circle>
  
  <circle cx="24" cy="29" r="0.8" fill="#e60000" opacity="0">
    <animate attributeName="opacity" values="0;1;0" dur="2s" repeatCount="indefinite" begin="4.4s" />
    <animate attributeName="cx" values="28;20;28" dur="2s" repeatCount="indefinite" begin="4.4s" />
    <animate attributeName="cy" values="28;31;28" dur="2s" repeatCount="indefinite" begin="4.4s" />
  </circle>
  
  <circle cx="56" cy="29" r="0.8" fill="#e60000" opacity="0">
    <animate attributeName="opacity" values="0;1;0" dur="2s" repeatCount="indefinite" begin="4.6s" />
    <animate attributeName="cx" values="52;60;52" dur="2s" repeatCount="indefinite" begin="4.6s" />
    <animate attributeName="cy" values="28;31;28" dur="2s" repeatCount="indefinite" begin="4.6s" />
  </circle>
  
  <!-- Expanding Pulse Animation -->
  <circle cx="40" cy="40" r="25" fill="none" stroke="#e60000" stroke-width="0.5" opacity="0">
    <animate attributeName="r" values="25;35" dur="3s" repeatCount="indefinite" begin="4s" />
    <animate attributeName="opacity" values="0.4;0" dur="3s" repeatCount="indefinite" begin="4s" />
  </circle>
</svg> 