<?xml version="1.0" encoding="UTF-8"?>
<svg width="800" height="600" viewBox="0 0 800 600" xmlns="http://www.w3.org/2000/svg">
  <!-- Styles -->
  <style>
    .connector { stroke: rgba(255, 0, 0, 0.7); stroke-width: 2; fill: none; }
    .connector-glow { filter: drop-shadow(0 0 3px rgba(255, 0, 0, 0.7)); }
    .node { fill: #1a1a1a; stroke: #ff0000; stroke-width: 2; }
    .node-highlight { fill: url(#node-gradient); }
    .icon-bg { fill: url(#icon-gradient); }
    .text-label { font-family: Arial, sans-serif; fill: white; font-size: 14px; text-anchor: middle; }
    .detail-text { font-family: Arial, sans-serif; fill: rgba(255, 255, 255, 0.7); font-size: 10px; text-anchor: middle; }
    
    @keyframes pulse {
      0% { opacity: 0.7; }
      50% { opacity: 1; }
      100% { opacity: 0.7; }
    }
    
    @keyframes dash {
      to { stroke-dashoffset: 0; }
    }
    
    @keyframes rotate {
      from { transform: rotate(0deg); }
      to { transform: rotate(360deg); }
    }
    
    @keyframes float {
      0% { transform: translateY(0); }
      50% { transform: translateY(-10px); }
      100% { transform: translateY(0); }
    }
    
    .pulse { animation: pulse 3s infinite; }
    .dash { stroke-dasharray: 500; stroke-dashoffset: 500; animation: dash 5s linear forwards; }
    .rotate { transform-origin: center; animation: rotate 30s infinite linear; }
    .float { animation: float 6s infinite ease-in-out; }
  </style>
  
  <!-- Gradients -->
  <defs>
    <linearGradient id="node-gradient" x1="0%" y1="0%" x2="100%" y2="100%">
      <stop offset="0%" stop-color="#2a2a2a" />
      <stop offset="100%" stop-color="#1a1a1a" />
    </linearGradient>
    
    <linearGradient id="icon-gradient" x1="0%" y1="0%" x2="100%" y2="100%">
      <stop offset="0%" stop-color="#ff3333" />
      <stop offset="100%" stop-color="#cc0000" />
    </linearGradient>
    
    <radialGradient id="glow-gradient" cx="50%" cy="50%" r="50%" fx="50%" fy="50%">
      <stop offset="0%" stop-color="rgba(255, 0, 0, 0.3)" />
      <stop offset="100%" stop-color="rgba(255, 0, 0, 0)" />
    </radialGradient>
    
    <!-- Icon Definitions -->
    <symbol id="truck-icon" viewBox="0 0 50 50">
      <path d="M45,20h-3v-5c0-1.7-1.3-3-3-3H10c-1.7,0-3,1.3-3,3v25c0,1.7,1.3,3,3,3h2c0,2.2,1.8,4,4,4s4-1.8,4-4h15c0,2.2,1.8,4,4,4s4-1.8,4-4h2c1.7,0,3-1.3,3-3v-5h-3v-3h3v-5h-3v-3h3v-4C45,21.3,45,20,45,20z M16,43c-1.1,0-2-0.9-2-2s0.9-2,2-2s2,0.9,2,2S17.1,43,16,43z M39,43c-1.1,0-2-0.9-2-2s0.9-2,2-2s2,0.9,2,2S40.1,43,39,43z M42,35v-5h3v5H42z M42,27v-3h3v3H42z" fill="white"/>
    </symbol>
    
    <symbol id="graph-icon" viewBox="0 0 50 50">
      <path d="M45,40H10V10c0-0.6-0.4-1-1-1H5c-0.6,0-1,0.4-1,1v30c0,0.6,0.4,1,1,1h40c0.6,0,1-0.4,1-1v-4C46,40.4,45.6,40,45,40z" fill="white"/>
      <rect x="15" y="20" width="5" height="15" fill="white"/>
      <rect x="25" y="15" width="5" height="20" fill="white"/>
      <rect x="35" y="25" width="5" height="10" fill="white"/>
    </symbol>
    
    <symbol id="money-icon" viewBox="0 0 50 50">
      <path d="M25,5C13.95,5,5,13.95,5,25s8.95,20,20,20s20-8.95,20-20S36.05,5,25,5z M25,41c-8.84,0-16-7.16-16-16S16.16,9,25,9s16,7.16,16,16S33.84,41,25,41z" fill="white"/>
      <path d="M29,16h-8c-1.1,0-2,0.9-2,2v14c0,1.1,0.9,2,2,2h8c1.1,0,2-0.9,2-2V18C31,16.9,30.1,16,29,16z M27,30h-4v-2h4V30z M27,26h-4v-2h4V26z M27,22h-4v-2h4V22z" fill="white"/>
    </symbol>
    
    <symbol id="data-icon" viewBox="0 0 50 50">
      <path d="M40,15H10c-2.8,0-5,2.2-5,5v15c0,2.8,2.2,5,5,5h30c2.8,0,5-2.2,5-5V20C45,17.2,42.8,15,40,15z M40,35H10V20h30V35z" fill="white"/>
      <rect x="15" y="25" width="5" height="5" fill="white"/>
      <rect x="25" y="25" width="5" height="5" fill="white"/>
      <rect x="35" y="25" width="5" height="5" fill="white"/>
    </symbol>
    
    <symbol id="user-icon" viewBox="0 0 50 50">
      <circle cx="25" cy="18" r="8" fill="white"/>
      <path d="M37,35c0-6.6-5.4-12-12-12s-12,5.4-12,12v5h24V35z" fill="white"/>
    </symbol>
    
    <symbol id="clock-icon" viewBox="0 0 50 50">
      <circle cx="25" cy="25" r="20" fill="none" stroke="white" stroke-width="2"/>
      <line x1="25" y1="25" x2="25" y2="12" stroke="white" stroke-width="2" stroke-linecap="round"/>
      <line x1="25" y1="25" x2="34" y2="30" stroke="white" stroke-width="2" stroke-linecap="round"/>
    </symbol>
  </defs>
  
  <!-- Background -->
  <rect width="800" height="600" fill="#0c0c0c"/>
  
  <!-- Background Glow -->
  <circle cx="400" cy="300" r="250" fill="url(#glow-gradient)" class="pulse"/>
  
  <!-- Grid Pattern -->
  <g opacity="0.1">
    <path d="M0,100 L800,100" stroke="#ff0000" stroke-width="1"/>
    <path d="M0,200 L800,200" stroke="#ff0000" stroke-width="1"/>
    <path d="M0,300 L800,300" stroke="#ff0000" stroke-width="1"/>
    <path d="M0,400 L800,400" stroke="#ff0000" stroke-width="1"/>
    <path d="M0,500 L800,500" stroke="#ff0000" stroke-width="1"/>
    
    <path d="M100,0 L100,600" stroke="#ff0000" stroke-width="1"/>
    <path d="M200,0 L200,600" stroke="#ff0000" stroke-width="1"/>
    <path d="M300,0 L300,600" stroke="#ff0000" stroke-width="1"/>
    <path d="M400,0 L400,600" stroke="#ff0000" stroke-width="1"/>
    <path d="M500,0 L500,600" stroke="#ff0000" stroke-width="1"/>
    <path d="M600,0 L600,600" stroke="#ff0000" stroke-width="1"/>
    <path d="M700,0 L700,600" stroke="#ff0000" stroke-width="1"/>
  </g>
  
  <!-- Rotating Background Element -->
  <g class="rotate" opacity="0.15">
    <circle cx="400" cy="300" r="200" fill="none" stroke="#ff0000" stroke-width="1" stroke-dasharray="10 5"/>
    <circle cx="400" cy="300" r="150" fill="none" stroke="#ff0000" stroke-width="1" stroke-dasharray="10 5"/>
    <circle cx="400" cy="300" r="100" fill="none" stroke="#ff0000" stroke-width="1" stroke-dasharray="10 5"/>
  </g>
  
  <!-- Central Hub -->
  <g class="float" transform="translate(400, 300)">
    <circle class="node node-highlight" r="50"/>
    <text class="text-label" y="-5">ek(one)</text>
    <text class="detail-text" y="15">Digital Logistics Platform</text>
    
    <!-- Animated Pulsing Glow -->
    <circle r="55" fill="none" stroke="#ff0000" stroke-width="2" opacity="0.8" class="pulse"/>
  </g>
  
  <!-- Connected Components -->
  <!-- Market Access Node -->
  <g transform="translate(250, 150)" class="float" style="animation-delay: 0.5s">
    <circle class="node" r="40"/>
    <circle class="icon-bg" cx="0" cy="0" r="25"/>
    <use href="#truck-icon" x="-15" y="-15" width="30" height="30" fill="white"/>
    <text class="text-label" y="55">Market Access</text>
  </g>
  
  <!-- Cost Reduction Node -->
  <g transform="translate(550, 150)" class="float" style="animation-delay: 1s">
    <circle class="node" r="40"/>
    <circle class="icon-bg" cx="0" cy="0" r="25"/>
    <use href="#money-icon" x="-15" y="-15" width="30" height="30" fill="white"/>
    <text class="text-label" y="55">Cost Reduction</text>
  </g>
  
  <!-- Data Insights Node -->
  <g transform="translate(550, 450)" class="float" style="animation-delay: 1.5s">
    <circle class="node" r="40"/>
    <circle class="icon-bg" cx="0" cy="0" r="25"/>
    <use href="#data-icon" x="-15" y="-15" width="30" height="30" fill="white"/>
    <text class="text-label" y="55">Data Insights</text>
  </g>
  
  <!-- Control & Transparency Node -->
  <g transform="translate(250, 450)" class="float" style="animation-delay: 2s">
    <circle class="node" r="40"/>
    <circle class="icon-bg" cx="0" cy="0" r="25"/>
    <use href="#graph-icon" x="-15" y="-15" width="30" height="30" fill="white"/>
    <text class="text-label" y="55">Control</text>
  </g>
  
  <!-- Connector Lines -->
  <g class="connector-glow">
    <!-- Central to Market Access -->
    <path class="connector dash" d="M 400,300 C 375,250 350,200 250,150" style="animation-delay: 0.5s"/>
    
    <!-- Central to Cost Reduction -->
    <path class="connector dash" d="M 400,300 C 425,250 475,200 550,150" style="animation-delay: 1s"/>
    
    <!-- Central to Data Insights -->
    <path class="connector dash" d="M 400,300 C 425,350 475,400 550,450" style="animation-delay: 1.5s"/>
    
    <!-- Central to Control -->
    <path class="connector dash" d="M 400,300 C 375,350 325,400 250,450" style="animation-delay: 2s"/>
    
    <!-- Circular Connection -->
    <path class="connector dash" d="M 250,150 C 150,250 150,350 250,450" style="animation-delay: 2.5s"/>
    <path class="connector dash" d="M 250,150 C 350,50 450,50 550,150" style="animation-delay: 3s"/>
    <path class="connector dash" d="M 550,150 C 650,250 650,350 550,450" style="animation-delay: 3.5s"/>
    <path class="connector dash" d="M 550,450 C 450,550 350,550 250,450" style="animation-delay: 4s"/>
  </g>
  
  <!-- Data Flow Points -->
  <g>
    <circle cx="325" cy="225" r="5" fill="#ff0000" class="pulse" style="animation-delay: 0.5s"/>
    <circle cx="475" cy="225" r="5" fill="#ff0000" class="pulse" style="animation-delay: 1s"/>
    <circle cx="475" cy="375" r="5" fill="#ff0000" class="pulse" style="animation-delay: 1.5s"/>
    <circle cx="325" cy="375" r="5" fill="#ff0000" class="pulse" style="animation-delay: 2s"/>
    
    <circle cx="200" cy="300" r="5" fill="#ff0000" class="pulse" style="animation-delay: 2.5s"/>
    <circle cx="400" cy="100" r="5" fill="#ff0000" class="pulse" style="animation-delay: 3s"/>
    <circle cx="600" cy="300" r="5" fill="#ff0000" class="pulse" style="animation-delay: 3.5s"/>
    <circle cx="400" cy="500" r="5" fill="#ff0000" class="pulse" style="animation-delay: 4s"/>
  </g>
  
  <!-- Benefits Labels -->
  <g>
    <!-- Market Access Benefits -->
    <g transform="translate(170, 100)">
      <rect x="-60" y="-15" width="120" height="30" rx="5" ry="5" fill="rgba(40, 40, 40, 0.8)" stroke="#ff0000" stroke-width="1"/>
      <text class="detail-text" x="0" y="5">Instant Truck Access</text>
    </g>
    
    <!-- Cost Benefits -->
    <g transform="translate(620, 100)">
      <rect x="-60" y="-15" width="120" height="30" rx="5" ry="5" fill="rgba(40, 40, 40, 0.8)" stroke="#ff0000" stroke-width="1"/>
      <text class="detail-text" x="0" y="5">Lower Logistics Costs</text>
    </g>
    
    <!-- Data Benefits -->
    <g transform="translate(620, 500)">
      <rect x="-60" y="-15" width="120" height="30" rx="5" ry="5" fill="rgba(40, 40, 40, 0.8)" stroke="#ff0000" stroke-width="1"/>
      <text class="detail-text" x="0" y="5">Real-time Analytics</text>
    </g>
    
    <!-- Control Benefits -->
    <g transform="translate(170, 500)">
      <rect x="-60" y="-15" width="120" height="30" rx="5" ry="5" fill="rgba(40, 40, 40, 0.8)" stroke="#ff0000" stroke-width="1"/>
      <text class="detail-text" x="0" y="5">End-to-End Visibility</text>
    </g>
  </g>
  
  <!-- Additional Icons for Features -->
  <!-- Time Savings -->
  <g transform="translate(150, 300)">
    <circle class="node" r="30"/>
    <circle class="icon-bg" cx="0" cy="0" r="20"/>
    <use href="#clock-icon" x="-12" y="-12" width="24" height="24" fill="white"/>
    <text class="detail-text" y="45">Time Savings</text>
  </g>
  
  <!-- User Experience -->
  <g transform="translate(650, 300)">
    <circle class="node" r="30"/>
    <circle class="icon-bg" cx="0" cy="0" r="20"/>
    <use href="#user-icon" x="-12" y="-12" width="24" height="24" fill="white"/>
    <text class="detail-text" y="45">User Experience</text>
  </g>
  
  <!-- Connector Lines for Additional Features -->
  <path class="connector dash" d="M 400,300 C 300,300 250,300 150,300" style="animation-delay: 4.5s"/>
  <path class="connector dash" d="M 400,300 C 500,300 550,300 650,300" style="animation-delay: 5s"/>
  
  <!-- Chart Elements -->
  <!-- Growth Chart -->
  <g transform="translate(100, 200)">
    <path d="M 0,50 L 15,45 L 30,40 L 45,30 L 60,15 L 75,0" stroke="#ff0000" stroke-width="2" fill="none" class="dash" style="animation-delay: 5.5s"/>
    <circle cx="75" cy="0" r="3" fill="#ff0000" class="pulse" style="animation-delay: 6s"/>
  </g>
  
  <!-- Efficiency Chart -->
  <g transform="translate(625, 200)">
    <path d="M 0,50 L 15,42 L 30,38 L 45,25 L 60,20 L 75,5" stroke="#ff0000" stroke-width="2" fill="none" class="dash" style="animation-delay: 6.5s"/>
    <circle cx="75" cy="5" r="3" fill="#ff0000" class="pulse" style="animation-delay: 7s"/>
  </g>
  
  <!-- Binary Data Decorations -->
  <g opacity="0.2" fill="#ff0000" font-family="monospace" font-size="10">
    <text x="100" y="400">10110101</text>
    <text x="650" y="400">01011010</text>
    <text x="300" y="100">11001100</text>
    <text x="500" y="500">00111100</text>
  </g>
</svg> 